<svg width="24" height="24" viewBox="0 0 24 24" fill="none" xmlns="http://www.w3.org/2000/svg">
<path d="M12.0001 17.4015C11.3771 17.4015 10.7681 17.2167 10.2501 16.8706C9.73205 16.5245 9.3283 16.0325 9.08988 15.457C8.85146 14.8814 8.78908 14.248 8.91063 13.637C9.03217 13.026 9.33218 12.4647 9.77272 12.0242C10.2133 11.5836 10.7745 11.2836 11.3856 11.1621C11.9966 11.0405 12.63 11.1029 13.2056 11.3413C13.7812 11.5798 14.2732 11.9835 14.6193 12.5015C14.9654 13.0195 15.1502 13.6285 15.1502 14.2515C15.1492 15.0866 14.817 15.8873 14.2264 16.4778C13.6359 17.0683 12.8353 17.4005 12.0001 17.4015Z" fill="#009EF7"/>
<path opacity="0.54" d="M14.3763 16.2961C14.0847 16.6424 13.7209 16.9207 13.3104 17.1116C12.9 17.3026 12.4527 17.4015 12 17.4015C11.5474 17.4015 11.1001 17.3026 10.6897 17.1116C10.2792 16.9207 9.91542 16.6424 9.62379 16.2961C8.97577 16.6979 8.44076 17.2581 8.06918 17.9238C7.69761 18.5896 7.50173 19.339 7.5 20.1015C7.49997 20.2197 7.52323 20.3367 7.56845 20.4459C7.61367 20.5551 7.67996 20.6544 7.76354 20.7379C7.84712 20.8215 7.94635 20.8878 8.05555 20.933C8.16476 20.9782 8.28181 21.0015 8.40001 21.0015H15.6001C15.7183 21.0015 15.8353 20.9782 15.9445 20.933C16.0538 20.8878 16.153 20.8215 16.2366 20.7379C16.3201 20.6544 16.3864 20.5551 16.4317 20.4459C16.4769 20.3367 16.5001 20.2197 16.5001 20.1015C16.4984 19.339 16.3025 18.5896 15.9309 17.9238C15.5593 17.2581 15.0243 16.6979 14.3763 16.2961Z" fill="#009EF7"/>
<path d="M20.1001 12.0016C19.8797 12.0019 19.6669 11.921 19.5024 11.7744L12 5.10576L4.49759 11.7744C4.31915 11.9329 4.08505 12.014 3.84679 11.9999C3.60853 11.9858 3.38563 11.8777 3.22712 11.6992C3.06861 11.5208 2.98748 11.2867 3.00157 11.0484C3.01567 10.8102 3.12383 10.5873 3.30227 10.4288L11.4024 3.22888C11.567 3.08239 11.7797 3.00146 12 3.00146C12.2204 3.00146 12.4331 3.08239 12.5977 3.22888L20.6978 10.4288C20.8342 10.55 20.9306 10.7099 20.9741 10.8871C21.0176 11.0644 21.0061 11.2507 20.9413 11.4213C20.8765 11.5919 20.7613 11.7388 20.6111 11.8424C20.4608 11.946 20.2826 12.0015 20.1001 12.0016Z" fill="#009EF7"/>
<path d="M12.0001 5.10571L4.80005 11.5056V20.1014C4.80002 20.2196 4.82328 20.3367 4.8685 20.4459C4.91371 20.5551 4.98001 20.6543 5.06359 20.7379C5.14717 20.8215 5.2464 20.8878 5.3556 20.933C5.46481 20.9782 5.58186 21.0014 5.70006 21.0014H8.40009C8.28189 21.0014 8.16484 20.9782 8.05563 20.933C7.94643 20.8878 7.8472 20.8215 7.76362 20.7379C7.68004 20.6543 7.61374 20.5551 7.56853 20.4459C7.52331 20.3367 7.50005 20.2196 7.50008 20.1014C7.50181 19.339 7.69769 18.5896 8.06926 17.9238C8.44084 17.258 8.97585 16.6978 9.62387 16.2961L9.62392 16.2961C9.12797 15.7301 8.85317 15.004 8.85009 14.2515C8.85009 13.4161 9.18197 12.6149 9.77272 12.0241C10.3635 11.4334 11.1647 11.1015 12.0001 11.1015C12.8356 11.1015 13.6368 11.4334 14.2275 12.0241C14.8183 12.6149 15.1502 13.4161 15.1502 14.2515C15.1471 15.004 14.8723 15.7301 14.3763 16.2961L14.3764 16.2961C15.0244 16.6978 15.5594 17.258 15.931 17.9238C16.3026 18.5896 16.4985 19.339 16.5002 20.1014C16.5002 20.2196 16.4769 20.3367 16.4317 20.4459C16.3865 20.5551 16.3202 20.6543 16.2366 20.7379C16.1531 20.8215 16.0538 20.8878 15.9446 20.933C15.8354 20.9782 15.7184 21.0014 15.6002 21.0014H18.3002C18.4184 21.0014 18.5354 20.9782 18.6447 20.933C18.7539 20.8878 18.8531 20.8215 18.9367 20.7379C19.0203 20.6543 19.0865 20.5551 19.1318 20.4459C19.177 20.3367 19.2002 20.2196 19.2002 20.1014V11.5056L12.0001 5.10571Z" fill="#D6F5FF"/>
</svg>
