<svg width="24" height="25" viewBox="0 0 24 25" fill="none" xmlns="http://www.w3.org/2000/svg">
<path d="M10.2 7.28654V6.39765H13.8V7.28654H15.6V6.39765C15.5989 5.41627 14.7937 4.62099 13.8 4.61987H10.2C9.20638 4.62099 8.40116 5.41627 8.40002 6.39765V7.28654H10.2Z" fill="#009EF7"/>
<path opacity="0.3" d="M9.30002 15.2865C8.8031 15.2866 8.40015 14.8889 8.40002 14.3981C8.40002 14.3979 8.40002 14.3978 8.40002 14.3976V12.6198C8.40002 12.1289 8.80296 11.731 9.30002 11.731C9.79709 11.731 10.2 12.1289 10.2 12.6198V14.3976C10.2002 14.8884 9.79742 15.2864 9.30049 15.2865C9.30034 15.2865 9.30018 15.2865 9.30002 15.2865ZM14.7 15.2865C14.2031 15.2866 13.8002 14.8889 13.8 14.3981C13.8 14.3979 13.8 14.3978 13.8 14.3976V12.6198C13.8 12.1289 14.203 11.731 14.7 11.731C15.1971 11.731 15.6 12.1289 15.6 12.6198V14.3976C15.6002 14.8884 15.1974 15.2864 14.7005 15.2865C14.7003 15.2865 14.7002 15.2865 14.7 15.2865Z" fill="white"/>
<path d="M19.2 7.28662H4.8C3.80589 7.28662 3 8.08256 3 9.0644V11.7311C3 12.7129 3.80589 13.5088 4.8 13.5088H8.4V12.62C8.4 12.129 8.80294 11.7311 9.3 11.7311C9.79706 11.7311 10.2 12.129 10.2 12.62V13.5088H13.8V12.62C13.8 12.129 14.2029 11.7311 14.7 11.7311C15.1971 11.7311 15.6 12.129 15.6 12.62V13.5088H19.2C20.1941 13.5088 21 12.7129 21 11.7311V9.0644C21 8.08256 20.1941 7.28662 19.2 7.28662Z" fill="#009EF7"/>
<path opacity="0.3" d="M19.2 13.5087H15.6V14.3976C15.6 14.8885 15.1971 15.2865 14.7 15.2865C14.2029 15.2865 13.8 14.8885 13.8 14.3976V13.5087H10.2V14.3976C10.2 14.8885 9.79706 15.2865 9.3 15.2865C8.80294 15.2865 8.4 14.8885 8.4 14.3976V13.5087H4.8C3.80589 13.5087 3 12.7128 3 11.731V18.8421C3 19.8239 3.80589 20.6198 4.8 20.6198H19.2C20.1941 20.6198 21 19.8239 21 18.8421V11.731C21 12.7128 20.1941 13.5087 19.2 13.5087Z" fill="#009EF7"/>
</svg>
