<svg width="24" height="25" viewBox="0 0 24 25" fill="none" xmlns="http://www.w3.org/2000/svg">
<path opacity="0.3" d="M16.338 21.1909H3.9C3.66131 21.1909 3.43239 21.0961 3.2636 20.9273C3.09482 20.7585 3 20.5296 3 20.2909V7.85292C3 6.61648 3.49117 5.43068 4.36547 4.55639C5.23976 3.68209 6.42556 3.19092 7.662 3.19092H16.338C16.9502 3.19092 17.5564 3.3115 18.1221 3.54579C18.6877 3.78008 19.2016 4.12348 19.6345 4.55639C20.0674 4.98929 20.4108 5.50323 20.6451 6.06885C20.8794 6.63447 21 7.24069 21 7.85292V16.5289C21 17.1411 20.8794 17.7474 20.6451 18.313C20.4108 18.8786 20.0674 19.3925 19.6345 19.8254C19.2016 20.2584 18.6877 20.6018 18.1221 20.836C17.5564 21.0703 16.9502 21.1909 16.338 21.1909Z" fill="#009EF7"/>
<path d="M11.3071 8.3569L11.9731 7.4569C12.1047 7.27455 12.2716 7.12057 12.464 7.00417C12.6565 6.88776 12.8703 6.81132 13.0929 6.7794C13.3155 6.74748 13.5423 6.76074 13.7597 6.81838C13.977 6.87602 14.1805 6.97687 14.3581 7.1149L15.8611 8.2759C16.2159 8.56414 16.4478 8.97661 16.5097 9.42958C16.5715 9.88256 16.4587 10.3421 16.1941 10.7149L15.5281 11.6149C15.0377 11.7141 14.5316 11.7052 14.045 11.5886C13.5585 11.472 13.1032 11.2506 12.7111 10.9399C12.3085 10.6324 11.9753 10.2434 11.7334 9.79826C11.4914 9.35315 11.3462 8.862 11.3071 8.3569ZM11.9641 11.9569C11.2149 11.3744 10.6468 10.591 10.3261 9.6979L7.80607 13.0909C7.61081 13.3677 7.50411 13.6972 7.50007 14.0359V16.3039C7.4925 16.5026 7.5314 16.7003 7.61367 16.8814C7.69595 17.0624 7.81933 17.2217 7.974 17.3467C8.12867 17.4716 8.31037 17.5588 8.50464 17.6012C8.69891 17.6436 8.9004 17.6401 9.09307 17.5909L11.2171 16.9429C11.5415 16.8469 11.8258 16.6479 12.0271 16.3759L14.5381 12.9739C13.6109 12.8837 12.7295 12.5274 12.0001 11.9479L11.9641 11.9569Z" fill="#009EF7"/>
</svg>
