<svg width="24" height="25" viewBox="0 0 24 25" fill="none" xmlns="http://www.w3.org/2000/svg">
<path opacity="0.3" d="M17.3419 6.80469H6.69903C6.17993 6.80551 5.6668 6.91462 5.1929 7.12492C4.719 7.33523 4.2949 7.64205 3.94811 8.02548C3.60131 8.40892 3.33956 8.86042 3.17981 9.35072C3.02006 9.84102 2.96588 10.3592 3.02078 10.8716L3.81343 18.2451C3.91212 19.1454 4.34202 19.978 5.02075 20.5833C5.69948 21.1885 6.57931 21.5239 7.49168 21.5251H16.6027C17.5255 21.5267 18.4155 21.1856 19.0978 20.5689C19.7801 19.9521 20.2053 19.1042 20.2898 18.192L20.9845 10.8274C21.0312 10.3217 20.9721 9.81181 20.811 9.32981C20.6498 8.84781 20.3901 8.40406 20.0481 8.02638C19.7061 7.64869 19.2892 7.34522 18.8235 7.13499C18.3578 6.92476 17.8534 6.81231 17.3419 6.80469ZM11.9982 18.0329C11.3147 18.0329 10.6466 17.8317 10.0784 17.4548C9.5101 17.0778 9.06719 16.5421 8.80564 15.9153C8.5441 15.2884 8.47567 14.5987 8.609 13.9333C8.74234 13.2679 9.07145 12.6567 9.55472 12.1769C10.038 11.6972 10.6537 11.3705 11.324 11.2381C11.9944 11.1057 12.6892 11.1737 13.3206 11.4333C13.952 11.6929 14.4917 12.1326 14.8714 12.6967C15.2511 13.2608 15.4538 13.9241 15.4538 14.6025C15.4538 15.5123 15.0897 16.3848 14.4417 17.0281C13.7936 17.6715 12.9147 18.0329 11.9982 18.0329Z" fill="#009EF7"/>
<path fill-rule="evenodd" clip-rule="evenodd" d="M20.811 9.3286C20.9721 9.8106 21.0312 10.3204 20.9845 10.8262L20.9044 11.949C19.5169 13.0753 17.8912 13.8762 16.1485 14.2919V14.6013C16.1485 15.687 15.714 16.7281 14.9407 17.4958C14.1674 18.2635 13.1185 18.6947 12.0249 18.6947C10.9313 18.6947 9.88244 18.2635 9.10912 17.4958C8.3358 16.7281 7.90136 15.687 7.90136 14.6013V14.3184C6.17432 13.933 4.55375 13.1754 3.15438 12.0993L3.02078 10.8262C2.96588 10.3138 3.02006 9.79561 3.17981 9.30531C3.33956 8.81501 3.60131 8.36351 3.94811 7.98007C4.2949 7.59663 4.719 7.28982 5.1929 7.07951C5.6668 6.8692 6.17993 6.7601 6.69903 6.75928H8.06167V5.87517C8.07334 5.24742 8.33277 4.6493 8.78414 4.20949C9.23551 3.76968 9.84276 3.52333 10.4752 3.52344H13.4944C14.1345 3.52344 14.7484 3.77587 15.2011 4.22519C15.6537 4.67452 15.908 5.28393 15.908 5.91937V6.80348H17.3419C17.8534 6.81111 18.3578 6.92356 18.8235 7.13379C19.2892 7.34401 19.7061 7.64748 20.0481 8.02517C20.3901 8.40285 20.6498 8.84661 20.811 9.3286ZM9.72213 5.11872C9.52004 5.31934 9.4065 5.59145 9.4065 5.87517L9.39759 6.75928H14.581V5.87517C14.581 5.59145 14.4674 5.31934 14.2653 5.11872C14.0632 4.9181 13.7891 4.8054 13.5033 4.8054H10.4841C10.1983 4.8054 9.92423 4.9181 9.72213 5.11872ZM10.456 16.9065C10.9155 17.2095 11.4554 17.3703 12.0071 17.3686H11.9982C12.7375 17.3686 13.4466 17.077 13.9693 16.5581C14.4921 16.0391 14.7858 15.3352 14.7858 14.6013C14.7858 14.0536 14.6221 13.5183 14.3154 13.063C14.0087 12.6077 13.5728 12.2531 13.0629 12.0439C12.553 11.8347 11.9921 11.7804 11.4511 11.8879C10.9101 11.9954 10.4134 12.2598 10.0239 12.6477C9.63439 13.0356 9.3696 13.5295 9.26305 14.0669C9.15649 14.6043 9.21297 15.161 9.42532 15.6664C9.63768 16.1719 9.99636 16.6035 10.456 16.9065ZM10.5454 16.0758C10.6437 16.1301 10.7546 16.1581 10.8671 16.157C10.9938 16.1641 11.1201 16.1366 11.2322 16.0775L12.4969 15.2641C12.5924 15.2053 12.6711 15.1233 12.7257 15.0258C12.7802 14.9283 12.8088 14.8186 12.8086 14.7071V13.3721C12.8086 13.1962 12.7383 13.0276 12.613 12.9032C12.4877 12.7789 12.3178 12.709 12.1407 12.709C11.9635 12.709 11.7936 12.7789 11.6683 12.9032C11.5431 13.0276 11.4727 13.1962 11.4727 13.3721V14.3446L10.5019 14.9635C10.3608 15.0574 10.2616 15.2017 10.2251 15.3665C10.1886 15.5312 10.2175 15.7036 10.306 15.8476C10.3646 15.943 10.447 16.0216 10.5454 16.0758Z" fill="#009EF7"/>
</svg>
