<svg width="24" height="25" viewBox="0 0 24 25" fill="none" xmlns="http://www.w3.org/2000/svg">
<path d="M5.47889 10.116C5.47889 9.76305 5.75574 9.47681 6.09774 9.47681H9.40289C9.74574 9.47681 10.0226 9.76305 10.0226 10.116C10.0229 10.1997 10.0072 10.2827 9.97622 10.3602C9.94526 10.4376 9.8997 10.5081 9.84216 10.5675C9.78461 10.627 9.7162 10.6742 9.64083 10.7066C9.56546 10.7389 9.48461 10.7558 9.40289 10.7561H6.09774C5.93285 10.7552 5.77506 10.6873 5.65903 10.5672C5.54299 10.4472 5.4782 10.2849 5.47889 10.116Z" fill="#009EF7"/>
<path fill-rule="evenodd" clip-rule="evenodd" d="M19.4468 10.4583C19.3936 10.4548 19.3354 10.4548 19.2754 10.4548H16.8985C14.9519 10.4548 13.2856 11.9791 13.2856 13.967C13.2856 15.9549 14.9519 17.4792 16.8985 17.4792H19.2754C19.3354 17.4792 19.3936 17.4792 19.4468 17.4757C20.2379 17.4265 20.9374 16.811 20.9965 15.9505C20.9999 15.8943 20.9999 15.8337 20.9999 15.7775V12.1565C20.9999 12.1003 20.9999 12.0397 20.9965 11.9835C20.9374 11.123 20.2379 10.5084 19.4468 10.4583ZM16.6894 14.9039C17.1899 14.9039 17.5962 14.4842 17.5962 13.967C17.5962 13.449 17.1899 13.0301 16.6894 13.0301C16.1879 13.0301 15.7808 13.4498 15.7808 13.967C15.7808 14.4851 16.1879 14.9039 16.6894 14.9039Z" fill="#009EF7"/>
<path opacity="0.3" d="M19.4057 10.4567C19.4057 9.41971 19.368 8.30723 18.7217 7.51084C18.6585 7.43282 18.5919 7.35782 18.522 7.28606C17.88 6.62928 17.0666 6.33777 16.062 6.19904C15.0849 6.0647 13.8377 6.0647 12.2623 6.0647H10.452C8.87657 6.0647 7.62857 6.0647 6.65143 6.19904C5.64686 6.33777 4.83343 6.62928 4.19143 7.28606C3.55029 7.94371 3.26571 8.77698 3.13029 9.80605C3 10.807 3 12.0846 3 13.6984V13.7968C3 15.4106 3 16.689 3.13114 17.6891C3.26657 18.7182 3.55114 19.5515 4.19229 20.2091C4.83429 20.8659 5.64771 21.1574 6.65229 21.2962C7.62943 21.4305 8.87657 21.4305 10.452 21.4305H12.2623C13.8377 21.4305 15.0857 21.4305 16.062 21.2962C17.0666 21.1574 17.88 20.8659 18.522 20.2091C18.6928 20.0337 18.844 19.8393 18.9729 19.6296C19.3586 18.9974 19.4049 18.223 19.4049 17.4784L19.2763 17.4793H16.8986C14.952 17.4793 13.2857 15.955 13.2857 13.9671C13.2857 11.9792 14.952 10.4549 16.8986 10.4549H19.2754C19.32 10.4549 19.3646 10.4549 19.4057 10.4567Z" fill="#009EF7"/>
<path d="M9.94376 3.93273L8.1429 5.17955L6.65747 6.19809C7.6329 6.06462 8.87918 6.06462 10.452 6.06462H12.2623C13.8378 6.06462 15.0858 6.06462 16.062 6.19897C16.2592 6.22531 16.4478 6.25867 16.6295 6.29906L15 5.18658L13.1889 3.93273C12.7082 3.60517 12.1437 3.43042 11.5663 3.43042C10.989 3.43042 10.4245 3.60517 9.94376 3.93273Z" fill="#009EF7"/>
</svg>
