<svg width="24" height="25" viewBox="0 0 24 25" fill="none" xmlns="http://www.w3.org/2000/svg">
<path opacity="0.3" fill-rule="evenodd" clip-rule="evenodd" d="M18.0333 9.90674C18.0333 13.2204 15.3288 15.9067 11.9926 15.9067C8.65641 15.9067 5.9519 13.2204 5.9519 9.90674C5.9519 6.59303 8.65641 3.90674 11.9926 3.90674C15.3288 3.90674 18.0333 6.59303 18.0333 9.90674ZM8.0818 9.09864C8.44581 9.07336 8.76153 9.34596 8.78698 9.70751C8.87489 10.9562 9.43135 11.8921 10.4899 12.5715C10.7963 12.7682 10.8842 13.1744 10.6862 13.4789C10.4882 13.7833 10.0792 13.8706 9.77269 13.6739C8.36485 12.7703 7.58572 11.4599 7.4688 9.79907C7.44335 9.43752 7.7178 9.12392 8.0818 9.09864Z" fill="#009EF7"/>
<rect x="10.9858" y="17.9067" width="2.01356" height="4" rx="1" fill="#009EF7"/>
<path d="M7.96545 21.9067C7.96545 20.8022 8.86088 19.9067 9.96545 19.9067H14.0197C15.1243 19.9067 16.0197 20.8022 16.0197 21.9067H7.96545Z" fill="#009EF7"/>
<path d="M3.00766 11.127C2.93965 10.5789 3.33188 10.0797 3.88374 10.0122C4.43559 9.94464 4.9381 10.3342 5.00611 10.8824C5.43815 14.3644 8.42913 17.0101 11.9935 17.0101C15.5945 17.0101 18.6054 14.3109 18.9923 10.7843C19.0525 10.2353 19.5494 9.83872 20.1022 9.89855C20.655 9.95838 21.0542 10.452 20.994 11.001C20.4961 15.5396 16.6249 19.0101 11.9935 19.0101C7.40928 19.0101 3.56371 15.6085 3.00766 11.127Z" fill="#009EF7"/>
</svg>
