<svg width="24" height="25" viewBox="0 0 24 25" fill="none" xmlns="http://www.w3.org/2000/svg">
<path d="M16.8 15.6952H9.3135L7.776 17.0077L6.2385 15.6952H3V16.5952C3 17.7423 3.79238 18.6768 4.77225 18.6952C4.86338 19.2622 5.08387 19.7745 5.41575 20.1753C5.90663 20.7682 6.62025 21.0952 7.425 21.0952H12.375C13.1798 21.0952 13.8934 20.7682 14.3842 20.1746C14.7161 19.7737 14.9366 19.2615 15.0278 18.6945C15.5483 18.6851 16.0159 18.417 16.3403 17.9958C16.6432 17.5921 16.8048 17.0999 16.8 16.5952V15.6952ZM6.3375 14.4952L7.77488 15.5523L9.225 14.4952H16.8V14.1952C16.7996 13.8495 16.68 13.5146 16.4614 13.2468C16.2428 12.9791 15.9386 12.7948 15.6 12.7252C15.5693 11.6118 15.1125 10.68 14.2684 10.0252C13.4876 9.41621 12.4444 9.09521 11.25 9.09521H8.55C5.99175 9.09521 4.25888 10.5491 4.2 12.7252C3.86142 12.7948 3.55719 12.9791 3.3386 13.2468C3.12001 13.5146 3.00042 13.8495 3 14.1952V14.4952H6.3375Z" fill="#009EF7"/>
<path opacity="0.3" d="M19.7655 6.09521H16.9683L17.3028 4.75796L18.975 4.18271L18.6 3.09521L16.275 3.84521L15.7316 6.09521H10.2V7.29521H10.9031L10.9728 7.89521H11.25C12.7125 7.89521 14.0122 8.30397 15.0045 9.07722C15.5564 9.50246 16.0037 10.0482 16.3125 10.6728C16.5027 11.0603 16.6381 11.4724 16.7148 11.8972C17.2736 12.2413 17.688 12.777 17.8805 13.4044C18.073 14.0317 18.0304 14.7077 17.7607 15.306C17.9187 15.7174 17.9998 16.1544 18 16.5952C18 17.433 17.715 18.2313 17.1975 18.8433C16.8772 19.2249 16.467 19.5206 16.0038 19.704C15.846 20.1538 15.6108 20.5726 15.309 20.9415C15.2647 20.9947 15.2193 21.0468 15.1728 21.0971H18C18.6 21.0971 18.8625 20.7971 18.9375 20.2346L20.3025 7.29709H21V6.09521H19.7655Z" fill="#009EF7"/>
</svg>
