<svg width="24" height="25" viewBox="0 0 24 25" fill="none" xmlns="http://www.w3.org/2000/svg">
<path opacity="0.3" d="M12.41 18.4089C12.4057 17.6065 12.6206 16.8166 13.034 16.1153C13.4473 15.4141 14.0452 14.8252 14.7698 14.4054C15.4945 13.9857 16.3215 13.7492 17.1712 13.7189C18.0208 13.6885 18.8644 13.8653 19.6206 14.2322V11.374C19.6206 11.1891 19.5428 11.0116 19.4042 10.8808C19.2656 10.75 19.0776 10.6765 18.8815 10.6765H3.7391C3.54308 10.6765 3.35508 10.75 3.21648 10.8808C3.07787 11.0116 3 11.1891 3 11.374V16.2143C3.00239 17.4378 3.51908 18.6105 4.43668 19.4749C5.35427 20.3393 6.59778 20.8248 7.89426 20.8248H13.131C12.6577 20.0983 12.408 19.2618 12.41 18.4089Z" fill="#009EF7"/>
<path d="M19.2691 8.55865C19.3109 8.66425 19.3252 8.77776 19.311 8.88968C19.2967 9.00159 19.2543 9.10866 19.1873 9.20194C19.1202 9.29521 19.0304 9.37197 18.9255 9.42581C18.8206 9.47964 18.7035 9.50898 18.5841 9.51138H4.16271C4.01658 9.51097 3.87274 9.47703 3.74359 9.41249C3.61444 9.34795 3.50385 9.25474 3.42136 9.14089C3.33887 9.02704 3.28695 8.89597 3.27007 8.75898C3.25319 8.62198 3.27186 8.48316 3.32447 8.35449C3.59494 7.73692 4.00416 7.18209 4.52391 6.72828C5.04365 6.27448 5.66154 5.93251 6.33493 5.72598V4.39896C6.33493 4.24329 6.40046 4.094 6.51709 3.98393C6.63372 3.87385 6.79191 3.81201 6.95686 3.81201C7.1218 3.81201 7.27999 3.87385 7.39662 3.98393C7.51326 4.094 7.57878 4.24329 7.57878 4.39896V5.50481C7.66891 5.50481 7.75905 5.50481 7.85819 5.50481H10.8146V4.39896C10.8146 4.24329 10.8801 4.094 10.9967 3.98393C11.1134 3.87385 11.2716 3.81201 11.4365 3.81201C11.5177 3.812 11.5982 3.82724 11.6731 3.85684C11.7481 3.88644 11.8161 3.92981 11.8731 3.98443C11.9301 4.03905 11.9751 4.10382 12.0054 4.17499C12.0356 4.24615 12.0506 4.32229 12.0494 4.39896V5.47929H14.6903C14.7805 5.47929 14.8706 5.47929 14.9697 5.47929V4.39896C14.9697 4.24329 15.0353 4.094 15.1519 3.98393C15.2685 3.87385 15.4267 3.81201 15.5917 3.81201C15.7566 3.81201 15.9148 3.87385 16.0314 3.98393C16.1481 4.094 16.2136 4.24329 16.2136 4.39896V5.72598C16.9174 5.94809 17.5584 6.31861 18.0878 6.80943C18.6172 7.30025 19.0212 7.89846 19.2691 8.55865Z" fill="#009EF7"/>
<path d="M8.34497 14.6155C8.77308 14.6155 9.12012 14.2918 9.12012 13.8925C9.12012 13.4932 8.77308 13.1694 8.34497 13.1694C7.91687 13.1694 7.56982 13.4932 7.56982 13.8925C7.56982 14.2918 7.91687 14.6155 8.34497 14.6155Z" fill="#009EF7"/>
<path d="M11.238 14.6155C11.6661 14.6155 12.0132 14.2918 12.0132 13.8925C12.0132 13.4932 11.6661 13.1694 11.238 13.1694C10.8099 13.1694 10.4629 13.4932 10.4629 13.8925C10.4629 14.2918 10.8099 14.6155 11.238 14.6155Z" fill="#009EF7"/>
<path d="M8.33582 17.3377C8.76392 17.3377 9.11097 17.014 9.11097 16.6147C9.11097 16.2153 8.76392 15.8916 8.33582 15.8916C7.90771 15.8916 7.56067 16.2153 7.56067 16.6147C7.56067 17.014 7.90771 17.3377 8.33582 17.3377Z" fill="#009EF7"/>
<path d="M17.3947 15.0068C16.6816 15.0068 15.9845 15.2064 15.3916 15.5803C14.7987 15.9542 14.3366 16.4856 14.0637 17.1073C13.7909 17.7291 13.7195 18.4132 13.8586 19.0733C13.9977 19.7333 14.3411 20.3396 14.8453 20.8154C15.3495 21.2913 15.9919 21.6154 16.6913 21.7467C17.3907 21.878 18.1156 21.8106 18.7744 21.553C19.4331 21.2955 19.9962 20.8594 20.3924 20.2998C20.7885 19.7403 21 19.0824 21 18.4094C21 17.507 20.6201 16.6415 19.944 16.0034C19.2679 15.3653 18.3509 15.0068 17.3947 15.0068ZM19.4317 18.1117L17.8904 19.9661C17.8274 20.0427 17.7468 20.1047 17.6547 20.1474C17.5625 20.1901 17.4613 20.2125 17.3586 20.2128C17.2558 20.2132 17.1543 20.1911 17.0621 20.1483C16.9698 20.1055 16.8893 20.0431 16.8268 19.9661L15.7182 18.6306C15.6506 18.5657 15.5983 18.4879 15.5647 18.4026C15.5311 18.3172 15.517 18.2261 15.5233 18.1353C15.5296 18.0444 15.5562 17.9558 15.6013 17.8754C15.6464 17.7949 15.709 17.7243 15.7851 17.6682C15.8611 17.6121 15.9488 17.5719 16.0424 17.55C16.1361 17.5281 16.2336 17.5252 16.3285 17.5414C16.4235 17.5576 16.5137 17.5925 16.5934 17.6438C16.673 17.6952 16.7403 17.7619 16.7908 17.8395L17.3586 18.537L18.3681 17.3291C18.4219 17.2624 18.4894 17.2066 18.5664 17.1648C18.6434 17.1231 18.7285 17.0962 18.8166 17.0859C18.9048 17.0756 18.9943 17.0821 19.0797 17.1048C19.1652 17.1276 19.2451 17.1663 19.3145 17.2185C19.4511 17.3262 19.5372 17.4804 19.554 17.6476C19.5709 17.8149 19.5172 17.9816 19.4046 18.1117H19.4317Z" fill="#009EF7"/>
</svg>
