<svg width="24" height="25" viewBox="0 0 24 25" fill="none" xmlns="http://www.w3.org/2000/svg">
<path d="M10.2 7.00236V6.11347H13.8V7.00236H15.6V6.11347C15.5989 5.13209 14.7936 4.33681 13.8 4.33569H10.2C9.20635 4.33681 8.40113 5.13209 8.4 6.11347V7.00236H10.2ZM9.15366 14.1135L3 12.0875V17.669C3.00163 19.1411 4.2095 20.3341 5.7 20.3357H18.3C19.7905 20.3341 20.9984 19.1411 21 17.669V12.0875L14.8463 14.1135H9.15366Z" fill="#009EF7"/>
<path opacity="0.3" d="M18.3 7.00244H5.7C4.20884 7.00244 3 8.19635 3 9.66911V12.0877L9.15366 14.1136H14.8463L21 12.0877V9.66911C21 8.19635 19.7912 7.00244 18.3 7.00244Z" fill="#009EF7"/>
</svg>
