<svg width="24" height="25" viewBox="0 0 24 25" fill="none" xmlns="http://www.w3.org/2000/svg">
<g opacity="0.3">
<path d="M8.16257 15.1274C7.96722 15.1274 7.77767 15.0617 7.62523 14.9409L4.61459 12.5609C4.10962 12.1636 3.70208 11.6586 3.42248 11.0836C3.14288 10.5087 2.99846 9.87868 3.00001 9.24078V4.92288C3.00001 4.69735 3.09066 4.48105 3.25203 4.32158C3.41339 4.1621 3.63224 4.07251 3.86044 4.07251H5.58129C5.80949 4.07251 6.02835 4.1621 6.18971 4.32158C6.35107 4.48105 6.44172 4.69735 6.44172 4.92288C6.44172 5.14842 6.35107 5.36471 6.18971 5.52419C6.02835 5.68367 5.80949 5.77326 5.58129 5.77326H4.72087V9.24078C4.71992 9.62356 4.80657 10.0016 4.97435 10.3466C5.14213 10.6916 5.38668 10.9946 5.68971 11.233L8.16257 13.1879L10.6359 11.233C10.9388 10.9945 11.1832 10.6915 11.3509 10.3465C11.5186 10.0015 11.6052 9.62351 11.6043 9.24078V5.77326H10.7439C10.5157 5.77326 10.2968 5.68367 10.1354 5.52419C9.97408 5.36471 9.88343 5.14842 9.88343 4.92288C9.88343 4.69735 9.97408 4.48105 10.1354 4.32158C10.2968 4.1621 10.5157 4.07251 10.7439 4.07251H12.4647C12.6929 4.07251 12.9118 4.1621 13.0731 4.32158C13.2345 4.48105 13.3251 4.69735 13.3251 4.92288V9.24078C13.3267 9.87864 13.1823 10.5086 12.9028 11.0835C12.6232 11.6585 12.2158 12.1635 11.711 12.5609L8.69992 14.9409C8.54747 15.0617 8.35793 15.1274 8.16257 15.1274Z" fill="#009EF7"/>
<path d="M16.9846 13.4488C17.4091 13.7291 17.9082 13.8787 18.4187 13.8787C19.1031 13.878 19.7592 13.6089 20.2431 13.1307C20.7271 12.6524 20.9993 12.004 21 11.3276C21 10.823 20.8486 10.3298 20.565 9.91025C20.2813 9.49072 19.8782 9.16374 19.4065 8.97065C18.9349 8.77756 18.4159 8.72704 17.9151 8.82548C17.4144 8.92391 16.9545 9.16688 16.5935 9.52366C16.2325 9.88045 15.9866 10.335 15.887 10.8299C15.7874 11.3248 15.8386 11.8377 16.0339 12.3039C16.2293 12.77 16.5601 13.1684 16.9846 13.4488Z" fill="#009EF7"/>
</g>
<path d="M18.3216 13.7367C18.0071 13.7335 17.6955 13.6764 17.4005 13.5676V15.1121C17.4005 16.2065 16.9638 17.2561 16.1865 18.0299C15.4092 18.8038 14.3549 19.2385 13.2556 19.2385C12.1563 19.2385 11.1021 18.8038 10.3247 18.0299C9.54743 17.2561 9.11073 16.2065 9.11073 15.1121V14.5708C8.50168 14.6812 7.8776 14.6812 7.26855 14.5708V15.1121C7.26855 16.6929 7.89933 18.209 9.02213 19.3267C10.1449 20.4445 11.6678 21.0725 13.2556 21.0725C14.8435 21.0725 16.3663 20.4445 17.4891 19.3267C18.6119 18.209 19.2427 16.6929 19.2427 15.1121V13.5677C18.9477 13.6764 18.6361 13.7336 18.3216 13.7367Z" fill="#009EF7"/>
</svg>
