<svg width="18" height="18" viewBox="0 0 18 18" fill="none" xmlns="http://www.w3.org/2000/svg">
<path fill-rule="evenodd" clip-rule="evenodd" d="M12.6533 4.84559C12.6533 7.10752 10.8197 8.94118 8.55775 8.94118C6.29582 8.94118 4.46216 7.10752 4.46216 4.84559C4.46216 2.58366 6.29582 0.75 8.55775 0.75C10.8197 0.75 12.6533 2.58366 12.6533 4.84559ZM11.6296 10.3626C12.1747 9.99707 12.8162 9.80188 13.4725 9.80183C14.3431 9.80176 15.1787 10.1448 15.7982 10.7565C16.4177 11.3682 16.7712 12.1995 16.7821 13.07C16.7903 13.7263 16.6032 14.3702 16.2445 14.9199C15.8859 15.4695 15.3719 15.9002 14.768 16.157C14.164 16.4138 13.4973 16.4853 12.8526 16.3623C12.2079 16.2393 11.6143 15.9274 11.1473 15.4663C10.6803 15.0051 10.361 14.4155 10.2299 13.7724C10.0988 13.1293 10.1619 12.4618 10.4111 11.8546C10.6603 11.2475 11.0845 10.7281 11.6296 10.3626ZM13.8283 14.4352L15.2266 12.6481H15.1935C15.2429 12.5845 15.2794 12.5118 15.3007 12.4342C15.3221 12.3565 15.3279 12.2754 15.3179 12.1955C15.3079 12.1156 15.2823 12.0385 15.2425 11.9685C15.2027 11.8985 15.1495 11.837 15.0859 11.7876C15.0224 11.7381 14.9497 11.7017 14.872 11.6803C14.7944 11.659 14.7133 11.6531 14.6334 11.6631C14.5535 11.6731 14.4764 11.6988 14.4064 11.7386C14.3364 11.7784 14.2749 11.8316 14.2254 11.8951L13.3153 13.0535L12.7941 12.3916C12.6953 12.2724 12.555 12.195 12.4015 12.175C12.248 12.1551 12.0926 12.194 11.9667 12.284C11.8475 12.3828 11.7701 12.523 11.7501 12.6765C11.7302 12.8301 11.7691 12.9854 11.8591 13.1114L12.8602 14.4269C12.9176 14.5019 12.9915 14.5625 13.0762 14.6041C13.1609 14.6457 13.2541 14.6672 13.3484 14.6669C13.4405 14.6658 13.5312 14.6444 13.6141 14.6044C13.697 14.5644 13.7701 14.5066 13.8283 14.4352Z" fill="#009EF7"/>
<path opacity="0.3" d="M15.8967 16.2298C15.7123 15.198 15.2584 14.2333 14.5812 13.4333L13.8283 14.393C13.7701 14.4644 13.697 14.5222 13.6141 14.5622C13.5312 14.6022 13.4405 14.6236 13.3484 14.6247C13.254 14.625 13.1609 14.6035 13.0762 14.5619C12.9915 14.5203 12.9176 14.4597 12.8602 14.3848L11.8591 13.1106C11.7935 13.0259 11.752 12.9251 11.7389 12.8188C11.7258 12.7125 11.7416 12.6047 11.7846 12.5066C11.7435 12.4109 11.7282 12.3061 11.7402 12.2027C11.7522 12.0992 11.7911 12.0007 11.8531 11.917C11.915 11.8333 11.9978 11.7673 12.0932 11.7255C12.1887 11.6838 12.2934 11.6678 12.3969 11.6792C11.2107 11.0649 9.89352 10.747 8.55778 10.7525C4.84279 10.7442 1.74835 13.1106 1.21882 16.2298C1.20656 16.3644 1.22363 16.5001 1.26884 16.6274C1.31405 16.7548 1.38633 16.8708 1.4807 16.9675C1.57507 17.0643 1.68928 17.1394 1.81548 17.1877C1.94167 17.2361 2.07685 17.2565 2.21169 17.2475H14.9121C15.0463 17.2552 15.1806 17.2339 15.3057 17.185C15.4309 17.1361 15.5441 17.0608 15.6375 16.9642C15.731 16.8676 15.8025 16.752 15.8472 16.6253C15.892 16.4986 15.9089 16.3637 15.8967 16.2298Z" fill="#009EF7"/>
</svg>
