<svg width="24" height="25" viewBox="0 0 24 25" fill="none" xmlns="http://www.w3.org/2000/svg">
<path d="M20.1001 12.2814C19.8797 12.2818 19.6669 12.2005 19.5024 12.0532L12 5.35264L4.49759 12.0532C4.31915 12.2124 4.08505 12.2939 3.84679 12.2798C3.60853 12.2656 3.38563 12.1569 3.22712 11.9777C3.06861 11.7984 2.98748 11.5631 3.00157 11.3238C3.01567 11.0844 3.12383 10.8604 3.30227 10.7011L11.4024 3.46678C11.567 3.3196 11.7797 3.23828 12 3.23828C12.2204 3.23828 12.4331 3.3196 12.5977 3.46678L20.6978 10.7011C20.8342 10.8229 20.9306 10.9835 20.9741 11.1616C21.0176 11.3398 21.0061 11.5269 20.9413 11.6984C20.8765 11.8698 20.7613 12.0174 20.6111 12.1215C20.4608 12.2256 20.2826 12.2814 20.1001 12.2814Z" fill="#01A4FF"/>
<path opacity="0.3" d="M4.79993 11.6971L12 5.2666L19.2001 11.6971V20.334C19.2001 20.4528 19.1769 20.5704 19.1316 20.6801C19.0864 20.7899 19.0201 20.8896 18.9365 20.9736C18.853 21.0575 18.7537 21.1241 18.6445 21.1696C18.5353 21.215 18.4183 21.2384 18.3001 21.2383H15.6H8.39997H5.69994C5.58174 21.2384 5.46469 21.215 5.35548 21.1696C5.24627 21.1241 5.14704 21.0575 5.06347 20.9736C4.97989 20.8896 4.91359 20.7899 4.86837 20.6801C4.82315 20.5704 4.7999 20.4528 4.79993 20.334V11.6971Z" fill="#01A4FF"/>
<rect x="8.26697" y="10.4565" width="3.26627" height="3.45151" rx="1.5" fill="#009EF7"/>
<path fill-rule="evenodd" clip-rule="evenodd" d="M12.4665 11.9565C12.4665 11.1281 13.1381 10.4565 13.9665 10.4565H14.2328C15.0612 10.4565 15.7328 11.1281 15.7328 11.9565V12.4081C15.7328 13.2365 15.0612 13.9081 14.2328 13.9081H13.9665C13.1381 13.9081 12.4665 13.2365 12.4665 12.4081V11.9565ZM8.26697 16.3942C8.26697 15.5658 8.93854 14.8942 9.76697 14.8942H10.0332C10.8617 14.8942 11.5332 15.5658 11.5332 16.3942V16.8457C11.5332 17.6741 10.8617 18.3457 10.0332 18.3457H9.76697C8.93854 18.3457 8.26697 17.6741 8.26697 16.8457V16.3942ZM13.9665 14.8942C13.1381 14.8942 12.4665 15.5658 12.4665 16.3942V16.8457C12.4665 17.6742 13.1381 18.3457 13.9665 18.3457H14.2328C15.0612 18.3457 15.7328 17.6742 15.7328 16.8457V16.3942C15.7328 15.5658 15.0612 14.8942 14.2328 14.8942H13.9665Z" fill="#01A4FF"/>
</svg>
