<svg width="24" height="25" viewBox="0 0 24 25" fill="none" xmlns="http://www.w3.org/2000/svg">
<path opacity="0.3" d="M18.6108 9.71127C17.6347 9.70888 16.6992 9.31996 16.009 8.62956C15.3188 7.93916 14.9299 7.00346 14.9275 6.02709C14.9301 5.41894 15.0857 4.82123 15.38 4.2891H7.23527C6.67994 4.28672 6.12961 4.39407 5.61587 4.60498C5.10213 4.8159 4.63509 5.12624 4.24157 5.51818C3.84805 5.91012 3.5358 6.37594 3.32274 6.8889C3.10967 7.40187 2.99999 7.95187 3 8.50735V14.9433C3 16.0621 3.44431 17.135 4.23518 17.9261C5.02605 18.7172 6.09871 19.1616 7.21717 19.1616H8.59273C8.78421 19.1622 8.97277 19.2086 9.14276 19.2967C9.31274 19.3849 9.45925 19.5123 9.5701 19.6685L10.5384 21.0444C10.666 21.2274 10.8359 21.3769 11.0336 21.4801C11.2314 21.5833 11.4511 21.6372 11.6742 21.6372C11.8972 21.6372 12.117 21.5833 12.3147 21.4801C12.5124 21.3769 12.6823 21.2274 12.8099 21.0444L13.7601 19.6685C13.871 19.5123 14.0175 19.3849 14.1875 19.2967C14.3575 19.2086 14.546 19.1622 14.7375 19.1616H16.1131C17.2315 19.1616 18.3042 18.7172 19.095 17.9261C19.8859 17.135 20.3302 16.0621 20.3302 14.9433V9.25867C19.8036 9.55017 19.2126 9.70573 18.6108 9.71127Z" fill="#009EF7"/>
<path fill-rule="evenodd" clip-rule="evenodd" d="M18.6107 8.4201C19.9302 8.4201 20.9998 7.35018 20.9998 6.03036C20.9998 4.71055 19.9302 3.64062 18.6107 3.64062C17.2912 3.64062 16.2216 4.71055 16.2216 6.03036C16.2216 7.35018 17.2912 8.4201 18.6107 8.4201ZM8.2037 12.964C8.67863 12.964 9.06364 12.579 9.06364 12.1041C9.06364 11.6292 8.67863 11.2442 8.2037 11.2442C7.72876 11.2442 7.34375 11.6292 7.34375 12.1041C7.34375 12.579 7.72876 12.964 8.2037 12.964ZM12.5297 12.1041C12.5297 12.579 12.1447 12.964 11.6698 12.964C11.1948 12.964 10.8098 12.579 10.8098 12.1041C10.8098 11.6292 11.1948 11.2442 11.6698 11.2442C12.1447 11.2442 12.5297 11.6292 12.5297 12.1041ZM16.0049 12.1041C16.0049 12.579 15.6199 12.964 15.145 12.964C14.67 12.964 14.285 12.579 14.285 12.1041C14.285 11.6292 14.67 11.2442 15.145 11.2442C15.6199 11.2442 16.0049 11.6292 16.0049 12.1041Z" fill="#009EF7"/>
</svg>
