<svg width="24" height="25" viewBox="0 0 24 25" fill="none" xmlns="http://www.w3.org/2000/svg">
<path opacity="0.3" d="M20.9991 17.1653C21.0032 17.5642 20.8745 17.9518 20.6357 18.2597C20.397 18.5676 20.0635 18.776 19.6942 18.8481C17.2701 19.2666 14.9228 20.086 12.7375 21.2766C12.2647 21.4828 11.7344 21.4828 11.2616 21.2766C9.08074 20.0991 6.749 19.2679 4.34094 18.8098C3.96582 18.744 3.62496 18.5386 3.3793 18.2303C3.13364 17.922 2.9992 17.531 3 17.127V5.26152C2.99996 5.01366 3.0503 4.76871 3.1476 4.54343C3.2449 4.31815 3.38685 4.11786 3.56374 3.95625C3.74063 3.79465 3.9483 3.67554 4.17253 3.60709C4.39675 3.53863 4.63225 3.52244 4.86291 3.55962C7.11755 3.92507 9.28784 4.73581 11.2616 5.94993C11.4826 6.09765 11.7384 6.17602 11.9996 6.17602C12.2607 6.17602 12.5165 6.09765 12.7375 5.94993C14.7052 4.73813 16.8594 3.9062 19.1002 3.49269C19.3333 3.45106 19.5722 3.46384 19.8002 3.53013C20.0282 3.59642 20.2399 3.71463 20.4205 3.87657C20.6012 4.0385 20.7466 4.24027 20.8465 4.46788C20.9464 4.69548 20.9985 4.94346 20.9991 5.19459V17.1653Z" fill="#009EF7"/>
<path fill-rule="evenodd" clip-rule="evenodd" d="M19.0998 3.49269C16.859 3.9062 14.7048 4.73813 12.7371 5.94993C12.5144 6.09272 12.2594 6.16872 11.9992 6.16984V21.4679C12.2529 21.4763 12.5051 21.424 12.7371 21.3149C14.9224 20.1243 17.2698 19.3048 19.6938 18.8863C20.0694 18.8132 20.4077 18.5992 20.6472 18.2834C20.8867 17.9675 21.0115 17.5707 20.9987 17.1653V5.19459C20.9981 4.94346 20.946 4.69548 20.8461 4.46788C20.7462 4.24028 20.6008 4.0385 20.4202 3.87657C20.2395 3.71463 20.0278 3.59642 19.7998 3.53013C19.5718 3.46384 19.333 3.45106 19.0998 3.49269ZM8.16513 9.58317H6.12223C5.94322 9.58317 5.77154 9.50762 5.64496 9.37314C5.51838 9.23866 5.44727 9.05626 5.44727 8.86608C5.44727 8.67589 5.51838 8.49349 5.64496 8.35901C5.77154 8.22453 5.94322 8.14898 6.12223 8.14898H8.16513C8.34415 8.14898 8.51583 8.22453 8.64241 8.35901C8.76899 8.49349 8.8401 8.67589 8.8401 8.86608C8.8401 9.05626 8.76899 9.23866 8.64241 9.37314C8.51583 9.50762 8.34415 9.58317 8.16513 9.58317ZM6.14937 12.4517H8.84924C9.02825 12.4517 9.19993 12.3762 9.32651 12.2417C9.45309 12.1072 9.5242 11.9248 9.5242 11.7346C9.5242 11.5444 9.45309 11.362 9.32651 11.2276C9.19993 11.0931 9.02825 11.0175 8.84924 11.0175H6.14937C5.97036 11.0175 5.79868 11.0931 5.6721 11.2276C5.54551 11.362 5.4744 11.5444 5.4744 11.7346C5.4744 11.9248 5.54551 12.1072 5.6721 12.2417C5.79868 12.3762 5.97036 12.4517 6.14937 12.4517Z" fill="#009EF7"/>
</svg>
