<svg width="18" height="18" viewBox="0 0 18 18" fill="none" xmlns="http://www.w3.org/2000/svg">
<path opacity="0.3" d="M15.0441 17.0605C15.1759 17.068 15.3078 17.047 15.4307 16.9989C15.5537 16.9509 15.6648 16.8769 15.7566 16.7821C15.8484 16.6872 15.9187 16.5737 15.9627 16.4493C16.0067 16.3248 16.0233 16.1923 16.0115 16.0609C15.4956 13.0297 12.4806 10.7 8.83677 10.7C5.19295 10.7 2.17794 13.0297 1.662 16.0609C1.64881 16.1926 1.66451 16.3257 1.708 16.4508C1.75149 16.5758 1.82172 16.6899 1.91381 16.7851C2.0059 16.8802 2.11763 16.9542 2.24121 17.0017C2.36479 17.0493 2.49726 17.0694 2.62938 17.0605H15.0441Z" fill="#009EF7"/>
<path fill-rule="evenodd" clip-rule="evenodd" d="M12.8354 4.93602C12.8354 7.14434 11.0452 8.93454 8.8369 8.93454C6.62858 8.93454 4.83838 7.14434 4.83838 4.93602C4.83838 2.7277 6.62858 0.9375 8.8369 0.9375C11.0452 0.9375 12.8354 2.7277 12.8354 4.93602ZM11.7068 15.392L12.8676 15.2308C13.0389 15.2051 13.1988 15.1293 13.3271 15.0131L16.0761 12.4415C16.2406 12.2767 16.3329 12.0535 16.3329 11.8207C16.3329 11.588 16.2406 11.3647 16.0761 11.2L15.5521 10.6357C15.4754 10.5493 15.3825 10.4789 15.2785 10.4286C15.1746 10.3782 15.0617 10.3488 14.9464 10.342C14.8311 10.3353 14.7156 10.3513 14.6065 10.3893C14.4974 10.4272 14.3969 10.4863 14.3107 10.5631L11.5617 13.1348C11.4404 13.2532 11.3563 13.4045 11.3198 13.5701L11.078 14.7229C11.0605 14.811 11.0643 14.9019 11.089 14.9883C11.1138 15.0746 11.1588 15.1537 11.2203 15.2192C11.2818 15.2846 11.358 15.3344 11.4426 15.3645C11.5272 15.3945 11.6178 15.404 11.7068 15.392Z" fill="#009EF7"/>
</svg>
