<svg width="18" height="18" viewBox="0 0 18 18" fill="none" xmlns="http://www.w3.org/2000/svg">
<path opacity="0.3" d="M17.3064 14.8645L9.89186 17.8176C9.2986 18.0607 8.63373 18.0607 8.04047 17.8176L0.679811 14.8645C0.479216 14.7845 0.307189 14.6461 0.18599 14.4672C0.0647914 14.2882 0 14.0769 0 13.8606C0 13.6444 0.0647914 13.4331 0.18599 13.2541C0.307189 13.0751 0.479216 12.9367 0.679811 12.8568L1.80323 12.3976L7.36641 14.6304C8.39401 15.0385 9.53832 15.0385 10.5659 14.6304L16.183 12.3976L17.3334 12.8568C17.533 12.9394 17.7032 13.0801 17.822 13.2607C17.9408 13.4413 18.0028 13.6535 17.9999 13.8698C17.997 14.0861 17.9293 14.2965 17.8057 14.4739C17.6821 14.6512 17.5082 14.7873 17.3064 14.8645ZM9.89186 12.9558L17.2795 9.99371C17.4773 9.91232 17.6465 9.77385 17.7655 9.5959C17.8846 9.41796 17.9482 9.20857 17.9482 8.99435C17.9482 8.78013 17.8846 8.57074 17.7655 8.3928C17.6465 8.21486 17.4773 8.07639 17.2795 7.99499L9.89186 5.03291C9.31283 4.81292 8.67343 4.81292 8.09439 5.03291L0.679811 7.99499C0.482005 8.07639 0.31282 8.21486 0.193753 8.3928C0.0746871 8.57074 0.0111148 8.78013 0.0111148 8.99435C0.0111148 9.20857 0.0746871 9.41796 0.193753 9.5959C0.31282 9.77385 0.482005 9.91232 0.679811 9.99371L8.09439 12.9558C8.67343 13.1758 9.31283 13.1758 9.89186 12.9558Z" fill="#009EF7"/>
<path d="M8.09439 8.09438L0.679811 5.13231C0.479216 5.05236 0.307189 4.91395 0.18599 4.73498C0.0647914 4.556 0 4.34471 0 4.12844C0 3.91218 0.0647914 3.70088 0.18599 3.52191C0.307189 3.34294 0.479216 3.20453 0.679811 3.12458L8.09439 0.171507C8.67181 -0.057169 9.31445 -0.057169 9.89186 0.171507L17.2795 3.12458C17.4801 3.20453 17.6521 3.34294 17.7733 3.52191C17.8945 3.70088 17.9593 3.91218 17.9593 4.12844C17.9593 4.34471 17.8945 4.556 17.7733 4.73498C17.6521 4.91395 17.4801 5.05236 17.2795 5.13231L9.89186 8.09438C9.31283 8.31437 8.67343 8.31437 8.09439 8.09438Z" fill="#009EF7"/>
</svg>
