<svg width="24" height="25" viewBox="0 0 24 25" fill="none" xmlns="http://www.w3.org/2000/svg">
<path d="M12.8951 9.13284V4.20289C12.8934 4.07112 12.9205 3.94058 12.9744 3.82042C13.0283 3.70027 13.1077 3.59342 13.2071 3.50737C13.3065 3.42132 13.4235 3.35817 13.5498 3.32234C13.6761 3.28651 13.8087 3.27888 13.9382 3.29997C15.7171 3.51565 17.3744 4.31794 18.6502 5.58105C19.9261 6.84416 20.7485 8.49668 20.9884 10.2795C21.0094 10.4096 21.0018 10.5428 20.9661 10.6696C20.9305 10.7964 20.8676 10.9138 20.7819 11.0136C20.6962 11.1135 20.5898 11.1932 20.4701 11.2473C20.3504 11.3015 20.2204 11.3286 20.0892 11.3269H15.1073C14.818 11.3305 14.531 11.2764 14.2627 11.1678C13.9945 11.0591 13.7504 10.8981 13.5446 10.694C13.3389 10.4899 13.1755 10.2468 13.064 9.97879C12.9525 9.7108 12.8951 9.42326 12.8951 9.13284Z" fill="#009EF7"/>
<path opacity="0.3" fill-rule="evenodd" clip-rule="evenodd" d="M11.0962 6.49626V12.0402C11.1122 12.7009 11.2661 13.351 11.548 13.9482C11.83 14.5455 12.2336 15.0767 12.7329 15.5074L15.3587 18.1259C15.5058 18.2698 15.6177 18.4459 15.6857 18.6404C15.7537 18.835 15.7759 19.0427 15.7507 19.2473C15.7254 19.4519 15.6534 19.6479 15.5401 19.8199C15.4269 19.9919 15.2755 20.1352 15.0979 20.2387C13.9619 20.8905 12.683 21.2503 11.375 21.2861C9.21966 21.3373 7.13126 20.5324 5.56361 19.0463C3.99597 17.5601 3.07575 15.5129 3.00291 13.3494C2.95191 11.4391 3.57304 9.57188 4.75716 8.07579C5.94129 6.5797 7.61265 5.55048 9.47757 5.16897C9.67358 5.12879 9.87602 5.1329 10.0703 5.18098C10.2645 5.22906 10.4456 5.31992 10.6006 5.44697C10.7555 5.57402 10.8804 5.73408 10.9661 5.91556C11.0518 6.09704 11.0963 6.2954 11.0962 6.49626ZM19.5405 17.8188C20.2562 16.7992 20.7299 15.6286 20.9253 14.3967C20.9418 14.2401 20.9251 14.0818 20.8765 13.9321C20.8279 13.7824 20.7484 13.6447 20.6431 13.528C20.5379 13.4112 20.4093 13.3181 20.2658 13.2546C20.1223 13.1912 19.9671 13.1588 19.8103 13.1597H14.9093C14.7527 13.1658 14.6012 13.217 14.4727 13.3071C14.3442 13.3972 14.2442 13.5224 14.1845 13.6679C14.1248 13.8134 14.108 13.973 14.1361 14.1278C14.1641 14.2826 14.2359 14.4261 14.3428 14.5412L17.8139 17.9903C17.9322 18.1063 18.0744 18.1948 18.2304 18.2498C18.3864 18.3047 18.5525 18.3247 18.717 18.3084C18.8815 18.2921 19.0405 18.2397 19.1828 18.1552C19.325 18.0706 19.4471 17.9558 19.5405 17.8188Z" fill="#009EF7"/>
</svg>
