<svg width="18" height="16" viewBox="0 0 18 16" fill="none" xmlns="http://www.w3.org/2000/svg">
<path fill-rule="evenodd" clip-rule="evenodd" d="M0 13.8002C0 14.6287 0.671573 15.3002 1.5 15.3002H16.5C17.3284 15.3002 18 14.6287 18 13.8002V4.20024C18 3.37182 17.3284 2.70024 16.5 2.70024H7.2L4.93934 0.439584C4.65804 0.15828 4.2765 0.000244141 3.87868 0.000244141H1.5C0.671573 0.000244141 0 0.671817 0 1.50024V13.8002Z" fill="#009EF7"/>
<path opacity="0.3" fill-rule="evenodd" clip-rule="evenodd" d="M1.80005 13.5L7.20005 6.30005L12.6 13.5H1.80005Z" fill="white"/>
<path fill-rule="evenodd" clip-rule="evenodd" d="M8.09998 13.5002L11.7 9.00024L15.3 13.5002H8.09998Z" fill="white"/>
<path opacity="0.3" fill-rule="evenodd" clip-rule="evenodd" d="M14.4 7.20024C15.1456 7.20024 15.75 6.59583 15.75 5.85024C15.75 5.10466 15.1456 4.50024 14.4 4.50024C13.6545 4.50024 13.05 5.10466 13.05 5.85024C13.05 6.59583 13.6545 7.20024 14.4 7.20024Z" fill="white"/>
</svg>
