<svg width="24" height="25" viewBox="0 0 24 25" fill="none" xmlns="http://www.w3.org/2000/svg">
<path opacity="0.3" d="M15.5842 3.07771L8.31926 3.11713C5.38151 3.13307 3.01289 5.53458 3.02878 8.48104L3.0678 15.7138C3.08369 18.6603 5.47809 21.0359 8.41584 21.02L15.6807 20.9806C18.6185 20.9646 20.9871 18.5631 20.9712 15.6166L20.9322 8.38389C20.9163 5.43742 18.5219 3.06176 15.5842 3.07771Z" fill="#009EF7"/>
<path fill-rule="evenodd" clip-rule="evenodd" d="M15.3873 11.9721C15.3873 13.8508 13.8688 15.3737 11.9957 15.3737C10.1226 15.3737 8.60421 13.8508 8.60421 11.9721C8.60421 10.0935 10.1226 8.57056 11.9957 8.57056C13.8688 8.57056 15.3873 10.0935 15.3873 11.9721ZM15.5506 17.5432C16.5898 18.2816 17.3748 19.3253 17.7972 20.5303C17.1311 20.8295 16.4116 20.9909 15.6819 21.0047H8.42585C7.65638 21.0129 6.89457 20.8509 6.19458 20.5303C6.61696 19.3253 7.40193 18.2816 8.4411 17.5432C9.48027 16.8048 10.7224 16.4083 11.9959 16.4083C13.2694 16.4083 14.5115 16.8048 15.5506 17.5432Z" fill="#009EF7"/>
</svg>
