<svg width="24" height="25" viewBox="0 0 24 25" fill="none" xmlns="http://www.w3.org/2000/svg">
<path fill-rule="evenodd" clip-rule="evenodd" d="M16.0192 4.85938H10.4793V9.13019C10.4793 9.58131 10.6539 10.0139 10.9648 10.3329C11.2756 10.6519 11.6972 10.8311 12.1368 10.8311H14.3617C14.8013 10.8311 15.2229 10.6519 15.5337 10.3329C15.8445 10.0139 16.0192 9.58131 16.0192 9.13019V4.85938ZM5.31032 13.5765C6.06713 12.7998 7.09359 12.3635 8.16388 12.3635C8.81267 12.3783 9.44835 12.5538 10.0168 12.8751C10.5852 13.1963 11.0696 13.6538 11.4286 14.2086C11.7877 14.7633 12.0107 15.3989 12.0788 16.0612C12.1468 16.7235 12.0579 17.3929 11.8196 18.0123C11.5812 18.6317 11.2005 19.1828 10.7099 19.6187C10.2193 20.0546 9.63327 20.3623 9.00177 20.5157C8.37027 20.6691 7.712 20.6636 7.08304 20.4996C6.45407 20.3356 5.87304 20.0181 5.38944 19.574L4.10131 20.6833C3.96773 20.7524 3.81498 20.772 3.66893 20.7387C3.53139 20.7374 3.39755 20.6929 3.28528 20.6114C3.17302 20.5298 3.08768 20.4151 3.04068 20.2824C2.99367 20.1498 2.98724 20.0055 3.02224 19.869C3.05724 19.7325 3.13201 19.6102 3.23655 19.5185L4.58774 18.3537C4.29162 17.7845 4.13401 17.1502 4.12833 16.5049C4.12833 15.4065 4.55351 14.3532 5.31032 13.5765ZM10.3488 18.0107C10.6392 17.565 10.7942 17.041 10.7942 16.5049V16.5419C10.799 16.1839 10.7345 15.8284 10.6046 15.4961C10.4746 15.1639 10.2818 14.8613 10.0372 14.606C9.79257 14.3507 9.50107 14.1477 9.17952 14.0087C8.85798 13.8697 8.51278 13.7975 8.16388 13.7964C7.64149 13.7945 7.13032 13.9518 6.69511 14.2483C6.25989 14.5448 5.9202 14.9672 5.71905 15.462C5.51791 15.9567 5.46435 16.5016 5.56517 17.0276C5.66599 17.5536 5.91665 18.0371 6.2854 18.4169C6.65416 18.7966 7.12442 19.0555 7.63665 19.1607C8.14887 19.266 8.68001 19.2129 9.16281 19.0082C9.6456 18.8034 10.0583 18.4563 10.3488 18.0107Z" fill="#009EF7"/>
<path opacity="0.3" d="M17.5859 4.85939H8.90231C7.99925 4.85939 7.13317 5.22754 6.49461 5.88285C5.85605 6.53815 5.49731 7.42695 5.49731 8.35369V14.5363C5.89457 13.9779 6.44821 13.5569 7.08448 13.3295C7.72075 13.1021 8.40944 13.0791 9.05879 13.2635C9.70814 13.4479 10.2873 13.8309 10.7192 14.3617C11.151 14.8924 11.415 15.5455 11.476 16.2341C11.537 16.9227 11.3921 17.614 11.0606 18.2159C10.7291 18.8179 10.2267 19.3019 9.62042 19.6034C9.01411 19.9049 8.33267 20.0097 7.66687 19.9038C7.00108 19.7979 6.38254 19.4863 5.89366 19.0105C6.18301 19.5711 6.61633 20.0397 7.14667 20.3656C7.67702 20.6915 8.28416 20.8623 8.90231 20.8593H17.5859C18.4844 20.8618 19.3473 20.4998 19.9868 19.8522C20.6263 19.2046 20.9904 18.3239 20.9999 17.402V8.35369C21 7.89404 20.9116 7.43889 20.7399 7.01434C20.5682 6.58979 20.3166 6.20417 19.9995 5.87957C19.6823 5.55497 19.3059 5.29778 18.8917 5.12272C18.4776 4.94766 18.0339 4.85817 17.5859 4.85939Z" fill="#009EF7"/>
</svg>
