<svg width="24" height="25" viewBox="0 0 24 25" fill="none" xmlns="http://www.w3.org/2000/svg">
<path opacity="0.3" d="M20.7068 12.4947L18.2191 7.65269C18.007 7.24411 17.687 6.90323 17.2948 6.66805C16.9026 6.43286 16.4537 6.31261 15.998 6.32069H11.2093V8.25569C11.209 8.35821 11.1856 8.45931 11.1409 8.55132C11.0963 8.64332 11.0316 8.72382 10.9516 8.78669L9.37907 10.0557C9.26349 10.1503 9.11899 10.2012 8.97038 10.1997C8.86796 10.1959 8.76768 10.1689 8.67695 10.1206C8.58622 10.0723 8.50736 10.004 8.4462 9.92069C8.35247 9.78335 8.31157 9.61602 8.3312 9.45024C8.35084 9.28446 8.42966 9.13168 8.55281 9.02069L9.8766 7.93169V6.32069H5.43435C4.7862 6.33246 4.1684 6.60096 3.71335 7.06866C3.2583 7.53635 3.00222 8.16602 3 8.82269V17.3187C3 17.9823 3.26022 18.6187 3.72341 19.0879C4.18661 19.5571 4.81483 19.8207 5.46989 19.8207H18.5301C19.1852 19.8207 19.8134 19.5571 20.2766 19.0879C20.7398 18.6187 21 17.9823 21 17.3187V13.6647C21.001 13.2559 20.9001 12.8535 20.7068 12.4947Z" fill="#009EF7"/>
<path fill-rule="evenodd" clip-rule="evenodd" d="M7.95189 4.41349C8.71894 3.8943 9.62075 3.61719 10.5433 3.61719C11.7803 3.61719 12.9667 4.115 13.8415 5.00111C14.7162 5.88722 15.2076 7.08904 15.2076 8.34219C15.2076 9.2767 14.9341 10.1902 14.4215 10.9673C13.909 11.7443 13.1805 12.3499 12.3282 12.7075C11.4759 13.0651 10.5381 13.1587 9.6333 12.9764C8.7285 12.7941 7.89739 12.3441 7.24507 11.6833C6.59275 11.0225 6.14851 10.1806 5.96853 9.26399C5.78856 8.34743 5.88093 7.39739 6.23396 6.53401C6.587 5.67063 7.18484 4.93268 7.95189 4.41349ZM11.1413 8.54781C11.1859 8.4558 11.2093 8.35471 11.2096 8.25219V6.26319C11.2096 6.08417 11.1394 5.91248 11.0144 5.78589C10.8895 5.6593 10.72 5.58819 10.5433 5.58819C10.3665 5.58819 10.1971 5.6593 10.0721 5.78589C9.94714 5.91248 9.87693 6.08417 9.87693 6.26319V7.92819L8.55314 9.01719C8.42999 9.12817 8.35117 9.28095 8.33154 9.44673C8.3119 9.61251 8.3528 9.77984 8.44653 9.91719C8.50769 10.0005 8.58655 10.0688 8.67728 10.1171C8.76801 10.1654 8.86829 10.1924 8.97071 10.1962C9.11932 10.1977 9.26382 10.1468 9.3794 10.0522L10.952 8.78319C11.0319 8.72031 11.0966 8.63981 11.1413 8.54781ZM18.095 9.91689H19.3655L20.7071 12.4909C20.9004 12.8497 21.0012 13.2521 21.0003 13.6609V14.4169H18.095C17.8594 14.4169 17.6334 14.3221 17.4668 14.1533C17.3002 13.9845 17.2066 13.7556 17.2066 13.5169V10.8169C17.2066 10.5782 17.3002 10.3493 17.4668 10.1805C17.6334 10.0117 17.8594 9.91689 18.095 9.91689ZM10.1083 19.8172C10.1083 20.8113 9.31272 21.6172 8.33137 21.6172C7.35001 21.6172 6.55447 20.8113 6.55447 19.8172C6.55447 18.823 7.35001 18.0172 8.33137 18.0172C9.31272 18.0172 10.1083 18.823 10.1083 19.8172ZM15.439 21.6172C16.4203 21.6172 17.2159 20.8113 17.2159 19.8172C17.2159 18.823 16.4203 18.0172 15.439 18.0172C14.4576 18.0172 13.6621 18.823 13.6621 19.8172C13.6621 20.8113 14.4576 21.6172 15.439 21.6172Z" fill="#009EF7"/>
</svg>
