<svg width="24" height="25" viewBox="0 0 24 25" fill="none" xmlns="http://www.w3.org/2000/svg">
<path d="M11.7429 7.37363C11.7429 8.2617 11.3907 9.1134 10.7638 9.74137C10.1368 10.3693 9.28658 10.7221 8.4 10.7221C7.51342 10.7221 6.66315 10.3693 6.03624 9.74137C5.40934 9.1134 5.05714 8.2617 5.05714 7.37363C5.05714 6.48556 5.40934 5.63386 6.03624 5.00589C6.66315 4.37793 7.51342 4.02515 8.4 4.02515C9.28658 4.02515 10.1368 4.37793 10.7638 5.00589C11.3907 5.63386 11.7429 6.48556 11.7429 7.37363ZM16.3714 10.7221C17.0534 10.7221 17.7075 10.4507 18.1897 9.96769C18.6719 9.48465 18.9429 8.82949 18.9429 8.14636C18.9429 7.46323 18.6719 6.80807 18.1897 6.32502C17.7075 5.84197 17.0534 5.5706 16.3714 5.5706C15.6894 5.5706 15.0354 5.84197 14.5532 6.32502C14.0709 6.80807 13.8 7.46323 13.8 8.14636C13.8 8.82949 14.0709 9.48465 14.5532 9.96769C15.0354 10.4507 15.6894 10.7221 16.3714 10.7221ZM13.0183 12.1954C12.9243 12.394 12.8565 12.6041 12.8146 12.826C12.2245 12.9362 11.6914 13.2497 11.3078 13.7122C10.9242 14.1748 10.7142 14.7572 10.7143 15.3585V17.6169C10.0817 17.8147 9.31851 17.9342 8.4 17.9342C3 17.9342 3 13.813 3 13.813C3 13.2665 3.21673 12.7424 3.60252 12.356C3.98831 11.9695 4.51155 11.7524 5.05714 11.7524H11.7429C12.2242 11.7524 12.6675 11.9173 13.0183 12.1954Z" fill="#009EF7"/>
<g opacity="0.3">
<path d="M14.252 12.2051C13.9626 12.4949 13.8001 12.888 13.8001 13.2979H14.8286C14.8286 13.1613 14.8828 13.0302 14.9793 12.9336C15.0757 12.837 15.2065 12.7827 15.3429 12.7827H17.4001C17.5365 12.7827 17.6673 12.837 17.7637 12.9336C17.8602 13.0302 17.9143 13.1613 17.9143 13.2979H18.9429C18.9429 12.888 18.7804 12.4949 18.491 12.2051C18.2017 11.9153 17.8093 11.7524 17.4001 11.7524H15.3429C14.9337 11.7524 14.5413 11.9153 14.252 12.2051Z" fill="#009EF7"/>
<path d="M19.4572 13.813H18.9429H17.9143H14.8286H13.8001H13.2858C12.8766 13.813 12.4842 13.9759 12.1948 14.2657C11.9055 14.5555 11.7429 14.9486 11.7429 15.3585V16.904H13.8001V16.3888C13.8001 16.2522 13.8542 16.1211 13.9507 16.0245C14.0471 15.9279 14.178 15.8737 14.3143 15.8737C14.4507 15.8737 14.5816 15.9279 14.678 16.0245C14.7745 16.1211 14.8286 16.2522 14.8286 16.3888V16.904H17.9143V16.3888C17.9143 16.2522 17.9685 16.1211 18.065 16.0245C18.1614 15.9279 18.2922 15.8737 18.4286 15.8737C18.565 15.8737 18.6958 15.9279 18.7923 16.0245C18.8887 16.1211 18.9429 16.2522 18.9429 16.3888V16.904H21.0001V15.3585C21.0001 14.9486 20.8375 14.5555 20.5482 14.2657C20.2588 13.9759 19.8664 13.813 19.4572 13.813Z" fill="#009EF7"/>
<path d="M21.0001 17.9343H18.9429V18.4494C18.9429 18.586 18.8887 18.7171 18.7923 18.8137C18.6958 18.9103 18.565 18.9646 18.4286 18.9646C18.2922 18.9646 18.1614 18.9103 18.065 18.8137C17.9685 18.7171 17.9143 18.586 17.9143 18.4494V17.9343H14.8286V18.4494C14.8286 18.586 14.7745 18.7171 14.678 18.8137C14.5816 18.9103 14.4507 18.9646 14.3143 18.9646C14.178 18.9646 14.0471 18.9103 13.9507 18.8137C13.8542 18.7171 13.8001 18.586 13.8001 18.4494V17.9343H11.7429V19.4797C11.7429 19.8896 11.9055 20.2827 12.1948 20.5725C12.4842 20.8623 12.8766 21.0252 13.2858 21.0252H19.4572C19.8664 21.0252 20.2588 20.8623 20.5482 20.5725C20.8375 20.2827 21.0001 19.8896 21.0001 19.4797V17.9343Z" fill="#009EF7"/>
</g>
</svg>
