<svg width="18" height="18" viewBox="0 0 18 18" fill="none" xmlns="http://www.w3.org/2000/svg">
<path d="M10.875 14.9868C12.0547 14.9568 12.8827 14.8615 13.5 14.5615V15.7503C13.5 15.9492 13.421 16.14 13.2803 16.2806C13.1397 16.4213 12.9489 16.5003 12.75 16.5003H11.625C11.4261 16.5003 11.2353 16.4213 11.0947 16.2806C10.954 16.14 10.875 15.9492 10.875 15.7503V14.9868ZM4.5 14.5615C5.11725 14.8615 5.94525 14.9568 7.125 14.9868V15.7503C7.125 15.9492 7.04598 16.14 6.90533 16.2806C6.76468 16.4213 6.57391 16.5003 6.375 16.5003H5.25C5.05109 16.5003 4.86032 16.4213 4.71967 16.2806C4.57902 16.14 4.5 15.9492 4.5 15.7503V14.5615Z" fill="#009EF7"/>
<path opacity="0.35" fill-rule="evenodd" clip-rule="evenodd" d="M3.879 2.37924C4.75725 1.50024 6.17175 1.50024 9 1.50024C11.8282 1.50024 13.2427 1.50024 14.121 2.37924C14.919 3.17649 14.9925 4.41474 15 6.75024V9.75024C14.9925 12.0857 14.919 13.324 14.121 14.1212C13.9405 14.3022 13.7305 14.4511 13.5 14.5615C12.8827 14.8615 12.0548 14.9567 10.875 14.9867C10.3298 15.0002 9.7095 15.0002 9 15.0002C8.2905 15.0002 7.67025 15.0002 7.125 14.9867C5.94525 14.9567 5.11725 14.8615 4.5 14.5615C4.2695 14.4511 4.05949 14.3022 3.879 14.1212C3.081 13.324 3.00675 12.0857 3 9.75024V6.75024C3.0075 4.41474 3.081 3.17649 3.879 2.37924Z" fill="#009EF7"/>
<path d="M13.3125 12.0002C13.3125 11.8511 13.2532 11.708 13.1477 11.6025C13.0423 11.497 12.8992 11.4377 12.75 11.4377H11.625C11.4758 11.4377 11.3327 11.497 11.2273 11.6025C11.1218 11.708 11.0625 11.8511 11.0625 12.0002C11.0625 12.1494 11.1218 12.2925 11.2273 12.398C11.3327 12.5035 11.4758 12.5627 11.625 12.5627H12.75C12.8992 12.5627 13.0423 12.5035 13.1477 12.398C13.2532 12.2925 13.3125 12.1494 13.3125 12.0002ZM4.6875 12.0002C4.6875 11.8511 4.74676 11.708 4.85225 11.6025C4.95774 11.497 5.10082 11.4377 5.25 11.4377H6.375C6.52418 11.4377 6.66726 11.497 6.77275 11.6025C6.87824 11.708 6.9375 11.8511 6.9375 12.0002C6.9375 12.1494 6.87824 12.2925 6.77275 12.398C6.66726 12.5035 6.52418 12.5627 6.375 12.5627H5.25C5.10082 12.5627 4.95774 12.5035 4.85225 12.398C4.74676 12.2925 4.6875 12.1494 4.6875 12.0002ZM4.125 7.12524C4.125 8.18574 4.125 8.71599 4.455 9.04524C4.78425 9.37524 5.3145 9.37524 6.375 9.37524H11.625C12.6855 9.37524 13.2157 9.37524 13.545 9.04524C13.875 8.71599 13.875 8.18574 13.875 7.12524V5.25024C13.875 4.18974 13.875 3.65949 13.545 3.33024C13.2165 3.00024 12.6862 3.00024 11.625 3.00024H6.375C5.3145 3.00024 4.78425 3.00024 4.455 3.33024C4.125 3.65874 4.125 4.18899 4.125 5.25024V7.12524ZM1.8 8.85024L3 9.75024V6.75024H2.25C2.05109 6.75024 1.86032 6.82926 1.71967 6.96991C1.57902 7.11057 1.5 7.30133 1.5 7.50024V8.25024C1.5 8.36668 1.52711 8.48151 1.57918 8.58565C1.63125 8.6898 1.70685 8.78038 1.8 8.85024ZM15.75 6.75024H14.9993L15 9.75024L16.2 8.85024C16.2931 8.78038 16.3687 8.6898 16.4208 8.58565C16.4729 8.48151 16.5 8.36668 16.5 8.25024V7.50024C16.5 7.30133 16.421 7.11057 16.2803 6.96991C16.1397 6.82926 15.9489 6.75024 15.75 6.75024Z" fill="#009EF7"/>
</svg>
