<svg width="24" height="24" viewBox="0 0 24 24" fill="none" xmlns="http://www.w3.org/2000/svg">
<path fill-rule="evenodd" clip-rule="evenodd" d="M17.4372 5.96996C16.3309 6.98584 15.0731 7.82332 13.7092 8.45231C13.5686 8.52167 13.4065 8.53331 13.2575 8.48475C13.1084 8.43619 12.9843 8.33128 12.9116 8.19243C12.1982 6.84884 11.4082 5.54728 10.5457 4.29415C10.4943 4.21111 10.4642 4.11661 10.4581 4.0191C10.4521 3.92158 10.4703 3.82408 10.5111 3.73532C10.5519 3.64656 10.6141 3.5693 10.6921 3.51043C10.7701 3.45157 10.8614 3.41294 10.958 3.39799C11.3076 3.33663 11.6608 3.29772 12.0154 3.28149C13.9538 3.28535 15.8394 3.91386 17.3924 5.0738C17.4624 5.12409 17.5202 5.18952 17.5615 5.26522C17.6028 5.34093 17.6264 5.42497 17.6307 5.51108C17.635 5.5972 17.6199 5.68318 17.5864 5.76263C17.5529 5.84207 17.5019 5.91294 17.4372 5.96996ZM8.51178 4.55092C9.46392 5.86772 10.3348 7.24139 11.1196 8.66428C11.1625 8.7392 11.1882 8.82272 11.1948 8.90879C11.2015 8.99487 11.1889 9.08134 11.158 9.16196C11.1271 9.24258 11.0787 9.31533 11.0163 9.37494C10.9538 9.43456 10.8789 9.47955 10.797 9.50666C8.56716 10.1005 6.26667 10.387 3.95931 10.358C3.86674 10.3564 3.7759 10.3327 3.69431 10.2889C3.61273 10.2451 3.54275 10.1825 3.49019 10.1063C3.43762 10.0301 3.40398 9.94244 3.39206 9.85062C3.38013 9.75881 3.39027 9.66547 3.42162 9.57835C4.14415 7.3464 5.70586 5.48263 7.77693 4.38065C7.89931 4.31539 8.04118 4.29668 8.17629 4.32799C8.31139 4.35929 8.43058 4.43849 8.51178 4.55092ZM15.6722 14.229C16.2103 15.7405 16.6504 17.2851 16.9896 18.8532C17.0106 18.9532 17.0572 19.046 17.1247 19.1227C17.1923 19.1993 17.2786 19.2572 17.3751 19.2906C17.4717 19.324 17.5753 19.3318 17.6757 19.3132C17.7762 19.2947 17.8702 19.2504 17.9485 19.1848C19.3648 17.9534 20.3637 16.3125 20.8072 14.4889C20.8373 14.3384 20.8085 14.182 20.7268 14.052C20.6452 13.922 20.5168 13.8282 20.3681 13.7899C19.0007 13.4504 17.5873 13.3354 16.1831 13.4494C16.0935 13.4569 16.0069 13.4846 15.9297 13.5306C15.8525 13.5766 15.7868 13.6395 15.7375 13.7147C15.6883 13.7898 15.6568 13.8752 15.6455 13.9643C15.6342 14.0534 15.6433 14.144 15.6722 14.229ZM6.82677 19.0447C8.40829 16.8487 10.5849 15.151 13.0999 14.1517C13.2391 14.1119 13.3881 14.1247 13.5185 14.1874C13.649 14.2502 13.7519 14.3586 13.8078 14.4922C14.504 16.3544 15.0377 18.2734 15.403 20.2276C15.4285 20.3648 15.4048 20.5066 15.3359 20.6279C15.267 20.7493 15.1575 20.8424 15.0266 20.8908C13.6949 21.3592 12.2721 21.51 10.8718 21.3311C9.47146 21.1521 8.13233 20.6484 6.96119 19.8602C6.89762 19.8164 6.84354 19.7603 6.80218 19.6951C6.76082 19.63 6.73304 19.5572 6.72048 19.481C6.70793 19.4049 6.71088 19.327 6.72914 19.252C6.7474 19.177 6.78061 19.1065 6.82677 19.0447Z" fill="#01A4FF"/>
<path opacity="0.3" fill-rule="evenodd" clip-rule="evenodd" d="M20.2872 11.9241C18.6078 11.5645 16.877 11.5129 15.1792 11.7718C15.0501 11.7964 14.9166 11.7761 14.8008 11.7141C14.6849 11.6521 14.5939 11.5523 14.5429 11.4312L14.2561 10.8129C14.1922 10.6726 14.1865 10.5127 14.2403 10.3683C14.294 10.2238 14.4029 10.1066 14.5429 10.0422C16.0471 9.3389 17.432 8.40456 18.6473 7.27307C18.707 7.21133 18.7797 7.16358 18.8601 7.13323C18.9405 7.10289 19.0266 7.09071 19.1123 7.09756C19.1979 7.10441 19.281 7.13013 19.3555 7.17287C19.4301 7.2156 19.4943 7.2743 19.5434 7.34476C20.3304 8.52023 20.8279 9.86529 20.9952 11.2699C21.0072 11.3635 20.9967 11.4586 20.9645 11.5473C20.9322 11.6359 20.8793 11.7156 20.81 11.7796C20.7407 11.8436 20.6571 11.8902 20.5661 11.9153C20.4752 11.9404 20.3796 11.9435 20.2872 11.9241ZM12.5533 11.397L12.7146 11.7465C12.7702 11.8903 12.7665 12.0503 12.7044 12.1914C12.6422 12.3325 12.5267 12.4432 12.383 12.4993C9.72694 13.5976 7.40388 15.3708 5.64394 17.6432C5.58891 17.7173 5.5173 17.7776 5.43482 17.8191C5.35235 17.8606 5.2613 17.8822 5.16897 17.8822C5.07665 17.8822 4.9856 17.8606 4.90312 17.8191C4.82065 17.7776 4.74903 17.7173 4.69401 17.6432C4.02077 16.7159 3.52826 15.6701 3.24224 14.5604C3.10556 13.9719 3.02455 13.3718 3.00028 12.7681C2.99784 12.6894 3.01141 12.6109 3.04016 12.5376C3.0689 12.4642 3.11223 12.3975 3.16753 12.3413C3.22282 12.2852 3.28892 12.2409 3.36183 12.211C3.43475 12.1812 3.51296 12.1664 3.59174 12.1677H4.30866C6.86298 12.181 9.40538 11.8186 11.8543 11.0923C11.988 11.0525 12.1315 11.0612 12.2594 11.117C12.3874 11.1727 12.4914 11.2719 12.5533 11.397Z" fill="#01A4FF"/>
</svg>
