<svg width="24" height="25" viewBox="0 0 24 25" fill="none" xmlns="http://www.w3.org/2000/svg">
<path opacity="0.3" d="M19.653 9.6592H18.3525C18.1207 9.0772 17.8056 8.53198 17.417 8.04065L18.0531 6.93667C18.2808 6.53799 18.3416 6.06551 18.2225 5.62215C18.1033 5.1788 17.8138 4.8005 17.417 4.56966L15.892 3.69022C15.6948 3.57626 15.4772 3.50232 15.2514 3.47262C15.0257 3.44293 14.7963 3.45806 14.5764 3.51716C14.3566 3.57626 14.1505 3.67816 13.9701 3.81702C13.7896 3.95589 13.6384 4.12899 13.525 4.32641L12.8794 5.4491C12.5882 5.40522 12.2944 5.38021 12 5.37425C11.7057 5.37712 11.412 5.39899 11.1205 5.43974L10.4937 4.32641C10.2678 3.92703 9.89253 3.63371 9.45043 3.5109C9.00833 3.3881 8.53555 3.44586 8.13603 3.6715L6.60168 4.54159C6.20231 4.7675 5.90898 5.14275 5.78618 5.58485C5.66337 6.02695 5.72114 6.49972 5.94678 6.89924L6.58297 8.03129C6.19987 8.51958 5.88511 9.05782 5.64739 9.63113H4.38436C4.15639 9.62739 3.92996 9.66922 3.71837 9.75417C3.50678 9.83912 3.31429 9.96548 3.15219 10.1258C2.9901 10.2862 2.86166 10.4773 2.77443 10.688C2.68719 10.8986 2.64292 11.1246 2.64419 11.3526V13.1115C2.64296 13.3388 2.68651 13.5641 2.77236 13.7745C2.8582 13.985 2.98466 14.1765 3.14451 14.3381C3.30437 14.4997 3.49448 14.6282 3.70401 14.7163C3.91353 14.8044 4.13836 14.8504 4.36565 14.8516H5.64739C5.88184 15.4266 6.19685 15.9653 6.58297 16.4515L5.93742 17.5555C5.82369 17.7519 5.74991 17.9688 5.72034 18.1938C5.69077 18.4189 5.70598 18.6475 5.76511 18.8666C5.82424 19.0857 5.92611 19.291 6.06486 19.4706C6.20362 19.6502 6.37652 19.8006 6.57361 19.9131L8.09861 20.8019C8.29572 20.9159 8.51338 20.9898 8.73912 21.0195C8.96486 21.0492 9.19424 21.0341 9.41412 20.975C9.634 20.9159 9.84006 20.814 10.0205 20.6751C10.2009 20.5362 10.3522 20.3631 10.4656 20.1657L11.1112 19.043C11.4052 19.0884 11.7024 19.1103 12 19.1085C12.3129 19.1061 12.6253 19.0842 12.9355 19.043L13.5717 20.147C13.6843 20.3441 13.8346 20.517 14.0142 20.6558C14.1938 20.7945 14.3991 20.8964 14.6182 20.9555C14.8373 21.0146 15.066 21.0299 15.291 21.0003C15.516 20.9707 15.733 20.8969 15.9294 20.7832L17.4544 19.9038C17.6523 19.792 17.826 19.6422 17.9657 19.463C18.1054 19.2837 18.2082 19.0786 18.2683 18.8594C18.3283 18.6402 18.3443 18.4113 18.3154 18.1859C18.2865 17.9605 18.2133 17.7431 18.0999 17.5461L17.4544 16.4234C17.8295 15.9466 18.1438 15.4249 18.39 14.8704H19.653C20.0993 14.8586 20.5242 14.6768 20.8408 14.3619C21.1573 14.0471 21.3416 13.6232 21.3557 13.177V11.4087C21.3607 10.9513 21.1844 10.5104 20.8654 10.1826C20.5463 9.85477 20.1104 9.66659 19.653 9.6592Z" fill="#009EF7"/>
<path d="M11.9907 15.2814C13.67 15.2814 15.0313 13.9201 15.0313 12.2408C15.0313 10.5615 13.67 9.2002 11.9907 9.2002C10.3114 9.2002 8.95007 10.5615 8.95007 12.2408C8.95007 13.9201 10.3114 15.2814 11.9907 15.2814Z" fill="#009EF7"/>
</svg>
