<svg width="25" height="25" viewBox="0 0 25 25" fill="none" xmlns="http://www.w3.org/2000/svg">
<path opacity="0.3" d="M16.154 4.56738H8.846C5.89349 4.56738 3.5 6.85779 3.5 9.68314V16.5989C3.5 19.4242 5.89349 21.7146 8.846 21.7146H16.154C19.1065 21.7146 21.5 19.4242 21.5 16.5989V9.68314C21.5 6.85779 19.1065 4.56738 16.154 4.56738Z" fill="#009EF7"/>
<path d="M17.162 10.0964L16.631 9.68298C16.4744 9.56913 16.2832 9.50749 16.0865 9.50749C15.8899 9.50749 15.6986 9.56913 15.542 9.68298L15.02 10.0964C14.8882 10.1864 14.7334 10.2408 14.572 10.2537C14.4106 10.2665 14.2485 10.2375 14.1029 10.1696C13.9573 10.1017 13.8335 9.99743 13.7447 9.86783C13.6558 9.73823 13.6051 9.58808 13.598 9.43323V4.57584C13.598 4.34742 13.6929 4.12836 13.8616 3.96685C14.0304 3.80534 14.2593 3.7146 14.498 3.7146H17.729C17.9677 3.7146 18.1966 3.80534 18.3654 3.96685C18.5342 4.12836 18.629 4.34742 18.629 4.57584V9.43323C18.6279 9.59547 18.5789 9.75411 18.4877 9.89088C18.3965 10.0277 18.2668 10.137 18.1135 10.2063C17.9602 10.2756 17.7895 10.302 17.6212 10.2826C17.4529 10.2631 17.2937 10.1986 17.162 10.0964ZM14.174 13.1279C14.1752 13.0413 14.1584 12.9552 14.1246 12.8748C14.0907 12.7944 14.0405 12.7212 13.9769 12.6595C13.9133 12.5978 13.8375 12.5489 13.7539 12.5154C13.6703 12.482 13.5806 12.4648 13.49 12.4648H8.90003C8.80944 12.4648 8.71976 12.482 8.63618 12.5154C8.5526 12.5489 8.47679 12.5978 8.41316 12.6595C8.34953 12.7212 8.29933 12.7944 8.26549 12.8748C8.23165 12.9552 8.21484 13.0413 8.21603 13.1279C8.21484 13.215 8.23159 13.3015 8.26532 13.3824C8.29905 13.4633 8.34911 13.537 8.41263 13.5994C8.47614 13.6618 8.55188 13.7116 8.63551 13.7459C8.71914 13.7803 8.80902 13.7986 8.90003 13.7997H13.49C13.581 13.7986 13.6709 13.7803 13.7546 13.7459C13.8382 13.7116 13.9139 13.6618 13.9774 13.5994C14.041 13.537 14.091 13.4633 14.1247 13.3824C14.1585 13.3015 14.1752 13.215 14.174 13.1279ZM16.262 16.5126C16.262 16.3359 16.1893 16.1664 16.0596 16.0406C15.9299 15.9149 15.7536 15.8431 15.569 15.8408H8.29703C8.11085 15.8408 7.93229 15.9116 7.80064 16.0376C7.66899 16.1636 7.59503 16.3344 7.59503 16.5126C7.59503 16.6908 7.66899 16.8616 7.80064 16.9876C7.93229 17.1136 8.11085 17.1844 8.29703 17.1844H15.569C15.7521 17.1821 15.927 17.1116 16.0565 16.9877C16.1859 16.8638 16.2597 16.6964 16.262 16.5212V16.5126Z" fill="#009EF7"/>
</svg>
