<svg width="20" height="18" viewBox="0 0 20 18" fill="none" xmlns="http://www.w3.org/2000/svg">
<path d="M9.16634 9.00043H1.66634M1.66634 9.00043L4.44384 5.66709M1.66634 9.00043L4.44384 12.3338M8.33301 4.83376V3.31209C8.33302 3.08157 8.38085 2.85356 8.47348 2.64246C8.56611 2.43137 8.70152 2.24179 8.87116 2.0857C9.0408 1.92961 9.24097 1.81041 9.45903 1.73563C9.67708 1.66086 9.90828 1.63213 10.138 1.65126L16.8047 2.20626C17.2213 2.24096 17.6097 2.43097 17.8928 2.7386C18.1758 3.04623 18.333 3.44903 18.333 3.86709V14.1338C18.333 14.5518 18.1758 14.9546 17.8928 15.2623C17.6097 15.5699 17.2213 15.7599 16.8047 15.7946L10.138 16.3504C9.90821 16.3696 9.67694 16.3408 9.45883 16.266C9.24072 16.1912 9.0405 16.0719 8.87085 15.9157C8.7012 15.7595 8.56581 15.5698 8.47323 15.3586C8.38065 15.1475 8.3329 14.9194 8.33301 14.6888V13.1671" stroke="white" stroke-width="2" stroke-linecap="round" stroke-linejoin="round"/>
</svg>
