<svg width="19" height="16" viewBox="0 0 19 16" fill="none" xmlns="http://www.w3.org/2000/svg">
<path d="M4.7613 14.3248C4.7803 14.7024 5.1489 15 5.5973 15H13.4082C13.8566 15 14.2271 14.7024 14.2442 14.3248L14.8028 4.408H4.2027L4.7613 14.3248ZM11.2688 6.872C11.2688 6.7136 11.4208 6.5856 11.6089 6.5856H12.1523C12.3404 6.5856 12.4924 6.7152 12.4924 6.872V12.5376C12.4924 12.696 12.3385 12.824 12.1523 12.824H11.6089C11.4208 12.824 11.2688 12.696 11.2688 12.5376V6.872ZM8.8919 6.872C8.8919 6.7136 9.0439 6.5856 9.232 6.5856H9.7754C9.9635 6.5856 10.1155 6.7152 10.1155 6.872V12.5376C10.1155 12.696 9.9635 12.824 9.7754 12.824H9.232C9.0439 12.824 8.8919 12.696 8.8919 12.5376V6.872ZM6.5131 6.872C6.5131 6.7136 6.6651 6.5856 6.8513 6.5856H7.3947C7.5828 6.5856 7.7348 6.7152 7.7348 6.872V12.5376C7.7348 12.696 7.5809 12.824 7.3947 12.824H6.8513C6.6632 12.824 6.5131 12.696 6.5131 12.5376V6.872ZM15.1733 1.7216H11.5709V1.1472C11.5709 1.0656 11.493 1 11.3961 1H7.6113C7.5144 1 7.4365 1.0656 7.4365 1.1472V1.7216H3.8322C3.5434 1.7216 3.3078 1.9184 3.3078 2.1632V3.552H15.6977V2.1632C15.6977 1.92 15.464 1.7216 15.1733 1.7216Z" fill="#FF3B30"/>
</svg>
