<svg width="15" height="14" viewBox="0 0 15 14" fill="none" xmlns="http://www.w3.org/2000/svg">
<path d="M14.6647 10.896L7.64863 13.9529C7.56588 13.984 7.47678 14 7.38674 14C7.29669 14 7.20759 13.984 7.12484 13.9529L0.108454 10.896C-0.034366 10.8335 -0.034366 10.731 0.108454 10.6682L1.78873 9.93758C1.8716 9.9065 1.96082 9.89048 2.05098 9.89048C2.14114 9.89048 2.23036 9.9065 2.31324 9.93758L7.12484 12.0313C7.20754 12.0626 7.29666 12.0787 7.38674 12.0787C7.47681 12.0787 7.56593 12.0626 7.64863 12.0313L12.4602 9.93758C12.543 9.9065 12.6322 9.89046 12.7223 9.89046C12.8124 9.89046 12.9016 9.9065 12.9844 9.93758L14.6647 10.6698C14.8093 10.731 14.8093 10.8335 14.6647 10.896ZM14.6647 6.62946L12.9844 5.89727C12.9016 5.86618 12.8124 5.85015 12.7223 5.85015C12.6322 5.85015 12.543 5.86618 12.4602 5.89727L7.64863 7.99352C7.56584 8.02446 7.47675 8.04041 7.38674 8.04041C7.29672 8.04041 7.20763 8.02446 7.12484 7.99352L2.31324 5.89727C2.23036 5.86619 2.14114 5.85017 2.05098 5.85017C1.96082 5.85017 1.8716 5.86619 1.78873 5.89727L0.108454 6.62946C-0.034366 6.69196 -0.034366 6.79477 0.108454 6.85789L7.12484 9.91414C7.20759 9.94522 7.29669 9.96125 7.38674 9.96125C7.47678 9.96125 7.56588 9.94522 7.64863 9.91414L14.6647 6.85789C14.8093 6.79477 14.8093 6.69227 14.6647 6.62946ZM0.108454 3.07571L7.12448 5.89727C7.29283 5.95509 7.47993 5.95509 7.64827 5.89727L14.6647 3.07571C14.8075 3.01758 14.8075 2.9229 14.6647 2.86508L7.64827 0.0438331C7.48006 -0.014611 7.2927 -0.014611 7.12448 0.0438331L0.108454 2.86508C-0.0361513 2.9229 -0.0361513 3.01758 0.108454 3.07571Z" fill="black"/>
</svg>
