<svg width="18" height="18" viewBox="0 0 18 18" fill="none" xmlns="http://www.w3.org/2000/svg">
<path d="M17.1 14.67V3.33C17.64 3.06 18 2.43 18 1.8C18 0.81 17.19 0 16.2 0C15.57 0 14.94 0.36 14.67 0.9H3.33C3.06 0.36 2.43 0 1.8 0C0.81 0 0 0.81 0 1.8C0 2.43 0.36 3.06 0.9 3.33V14.67C0.36 14.94 0 15.57 0 16.2C0 17.19 0.81 18 1.8 18C2.43 18 3.06 17.64 3.33 17.1H14.67C14.94 17.64 15.57 18 16.2 18C17.19 18 18 17.19 18 16.2C18 15.57 17.64 14.94 17.1 14.67ZM15.3 14.67C15.03 14.85 14.85 15.03 14.67 15.3H3.33C3.15 15.03 2.97 14.85 2.7 14.67V3.33C2.97 3.15 3.15 2.97 3.33 2.7H14.67C14.85 2.97 15.03 3.15 15.3 3.33V14.67Z" fill="#50A5F1"/>
<path d="M8.55274 11.6519L7.12684 12.4208C6.31882 12.8565 5.36774 12.5718 4.93204 11.7638C4.49633 10.9558 4.78104 10.0047 5.58905 9.56902L7.01496 8.80013C7.30014 8.64635 7.38774 8.35371 7.23397 8.06853C7.08019 7.78335 6.78755 7.69575 6.50237 7.84953L5.07646 8.61842C3.74562 9.33605 3.2638 10.9456 3.98144 12.2764C4.69907 13.6073 6.30858 14.0891 7.63943 13.3714L9.06534 12.6025C9.35052 12.4488 9.43812 12.1561 9.28434 11.8709C9.13056 11.5858 8.83792 11.4982 8.55274 11.6519ZM9.82948 6.05545L8.40357 6.82434C8.11839 6.97812 8.03079 7.27076 8.18457 7.55594C8.33835 7.84112 8.63099 7.92872 8.91617 7.77494L10.3421 7.00605C11.1501 6.57035 12.1012 6.85505 12.5369 7.66307C12.9726 8.47108 12.6879 9.42216 11.8799 9.85786L10.4539 10.6268C10.1688 10.7805 10.0812 11.0732 10.2349 11.3584C10.3887 11.6435 10.6814 11.7311 10.9665 11.5774L12.3924 10.8085C13.7233 10.0908 14.2051 8.48132 13.4875 7.15047C12.7698 5.81963 11.1603 5.33782 9.82948 6.05545ZM6.83325 10.7386C6.98703 11.0238 7.27966 11.1114 7.56485 10.9576L10.4167 9.41985C10.7018 9.26608 10.7894 8.97344 10.6357 8.68826C10.4819 8.40307 10.1892 8.31547 9.90406 8.46925L7.05225 10.007C6.76707 10.1608 6.67947 10.4534 6.83325 10.7386Z" fill="#50A5F1"/>
</svg>
