<svg width="16" height="20" viewBox="0 0 16 20" fill="none" xmlns="http://www.w3.org/2000/svg">
<path d="M5 5C5 3.34314 6.34314 2 8 2C9.65686 2 11 3.34314 11 5V7H13V5C13 2.23859 10.7614 0 8 0C5.23859 0 3 2.23859 3 5V7H5V5ZM8 16C7.44786 16.0001 7.00014 15.5527 7 15.0005C7 15.0004 7 15.0002 7 15V12C7 11.4477 7.44771 11 8 11C8.55229 11 9 11.4477 9 12V15C9.00014 15.5521 8.55266 15.9999 8.00052 16C8.00035 16 8.00017 16 8 16Z" fill="#F7A1A1"/>
<path d="M13 7H3C1.34314 7 0 8.34314 0 10V17C0 18.6569 1.34314 20 3 20H13C14.6569 20 16 18.6569 16 17V10C16 8.34314 14.6569 7 13 7ZM9 15C9.00012 15.5521 8.55267 15.9999 8.00055 16C8.00037 16 8.00018 16 8 16C7.44788 16.0001 7.00012 15.5527 7 15.0005C7 15.0004 7 15.0002 7 15V12C7 11.4477 7.44769 11 8 11C8.55231 11 9 11.4477 9 12V15Z" fill="#F46A6A"/>
</svg>
