<svg width="19" height="19" viewBox="0 0 19 19" fill="none" xmlns="http://www.w3.org/2000/svg">
<path opacity="0.3" d="M15.8608 6.32406C14.8847 6.32167 13.9492 5.93275 13.259 5.24235C12.5688 4.55195 12.1799 3.61625 12.1775 2.63988C12.1801 2.03174 12.3357 1.43402 12.63 0.901894H4.48527C3.92994 0.89951 3.37961 1.00686 2.86587 1.21778C2.35213 1.4287 1.88509 1.73903 1.49157 2.13097C1.09805 2.52291 0.7858 2.98873 0.572736 3.5017C0.359672 4.01466 0.249995 4.56467 0.25 5.12014V11.5561C0.25 12.6749 0.694308 13.7478 1.48518 14.5389C2.27605 15.33 3.34871 15.7744 4.46717 15.7744H5.84273C6.03421 15.775 6.22277 15.8213 6.39276 15.9095C6.56274 15.9977 6.70925 16.1251 6.8201 16.2813L7.78842 17.6572C7.916 17.8402 8.08589 17.9897 8.28363 18.0929C8.48138 18.1961 8.70112 18.25 8.92416 18.25C9.14721 18.25 9.36695 18.1961 9.56469 18.0929C9.76243 17.9897 9.93232 17.8402 10.0599 17.6572L11.0101 16.2813C11.121 16.1251 11.2675 15.9977 11.4375 15.9095C11.6075 15.8213 11.796 15.775 11.9875 15.7744H13.3631C14.4815 15.7744 15.5542 15.33 16.345 14.5389C17.1359 13.7478 17.5802 12.6749 17.5802 11.5561V5.87146C17.0536 6.16296 16.4626 6.31852 15.8608 6.32406Z" fill="#009EF7"/>
<path fill-rule="evenodd" clip-rule="evenodd" d="M15.8606 5.02947C17.1801 5.02947 18.2497 3.95955 18.2497 2.63974C18.2497 1.31992 17.1801 0.25 15.8606 0.25C14.5411 0.25 13.4715 1.31992 13.4715 2.63974C13.4715 3.95955 14.5411 5.02947 15.8606 5.02947ZM5.4537 9.57389C5.92863 9.57389 6.31364 9.18878 6.31364 8.71373C6.31364 8.23867 5.92863 7.85356 5.4537 7.85356C4.97876 7.85356 4.59375 8.23867 4.59375 8.71373C4.59375 9.18878 4.97876 9.57389 5.4537 9.57389ZM9.77959 8.71373C9.77959 9.18878 9.39457 9.57389 8.91964 9.57389C8.4447 9.57389 8.05969 9.18878 8.05969 8.71373C8.05969 8.23867 8.4447 7.85356 8.91964 7.85356C9.39457 7.85356 9.77959 8.23867 9.77959 8.71373ZM13.2548 8.71373C13.2548 9.18878 12.8698 9.57389 12.3949 9.57389C11.9199 9.57389 11.5349 9.18878 11.5349 8.71373C11.5349 8.23867 11.9199 7.85356 12.3949 7.85356C12.8698 7.85356 13.2548 8.23867 13.2548 8.71373Z" fill="#009EF7"/>
</svg>
