<svg width="19" height="19" viewBox="0 0 19 19" fill="none" xmlns="http://www.w3.org/2000/svg">
<path opacity="0.3" d="M16.5038 12.0621C15.6487 10.8244 15.2035 9.3703 15.2259 7.88839V7.73381C15.2249 6.89013 15.0045 6.05987 14.5844 5.31737C14.1642 4.57488 13.5575 3.94334 12.8186 3.47931C12.0797 3.01528 11.2316 2.73326 10.3503 2.6585C9.46896 2.58374 8.58197 2.71857 7.76874 3.05093C6.8169 3.42618 6.00525 4.06545 5.43904 4.88586C4.87282 5.70626 4.57815 6.66995 4.59323 7.65197V7.71562C4.59944 9.30304 4.06761 10.8499 3.077 12.1257L2.44762 12.9714C2.19287 13.3039 2.05591 13.7052 2.05664 14.1171C2.05664 14.6283 2.26964 15.1186 2.64877 15.4802C3.0279 15.8417 3.54211 16.0448 4.07829 16.0448H15.4739C15.7393 16.0448 16.0022 15.9949 16.2475 15.898C16.4928 15.8012 16.7157 15.6592 16.9034 15.4802C17.0911 15.3012 17.24 15.0887 17.3416 14.8548C17.4432 14.6209 17.4955 14.3702 17.4955 14.1171V14.0625C17.4978 13.6743 17.3782 13.2943 17.1522 12.9714L16.5038 12.0621Z" fill="#009EF7"/>
<path fill-rule="evenodd" clip-rule="evenodd" d="M10.4774 0.931973V2.68692C10.001 2.6378 9.51991 2.65003 9.04698 2.72329C9.04271 2.69921 9.04271 2.67462 9.04698 2.65054V0.931973C9.04698 0.751102 9.12233 0.57764 9.25646 0.449745C9.39059 0.32185 9.5725 0.25 9.76219 0.25C9.95187 0.25 10.1338 0.32185 10.2679 0.449745C10.402 0.57764 10.4774 0.751102 10.4774 0.931973ZM8.61339 17.8762C8.28077 17.6337 8.04107 17.2936 7.93127 16.9084H11.6122C11.5024 17.2936 11.2627 17.6337 10.9301 17.8762C10.5975 18.1187 10.1904 18.25 9.77173 18.25C9.35305 18.25 8.946 18.1187 8.61339 17.8762ZM1.54218 8.42462C1.37043 8.42612 1.204 8.36785 1.07409 8.26071C0.944185 8.15358 0.859712 8.00494 0.836509 7.84267C0.647884 6.76411 0.769031 5.65697 1.18709 4.63877C1.60515 3.62057 2.30453 2.72929 3.21098 2.05954C3.37032 1.95585 3.56633 1.91675 3.7559 1.95085C3.94546 1.98496 4.11305 2.08947 4.22181 2.2414C4.33056 2.39333 4.37156 2.58024 4.33579 2.761C4.30003 2.94175 4.19042 3.10156 4.03109 3.20526C3.34647 3.7286 2.82041 4.41637 2.50699 5.19786C2.19358 5.97935 2.10413 6.82634 2.24784 7.65172C2.26125 7.7402 2.25603 7.83034 2.23248 7.91687C2.20894 8.00341 2.16755 8.0846 2.11074 8.15571C2.05392 8.22682 1.98281 8.28642 1.90156 8.33103C1.82031 8.37564 1.73056 8.40437 1.63754 8.41553L1.54218 8.42462ZM17.868 8.42462H17.9633C18.141 8.42518 18.3123 8.36182 18.4431 8.2472C18.5739 8.13258 18.6546 7.97514 18.669 7.8063C18.8504 6.73338 18.7257 5.63368 18.3079 4.62256C17.8901 3.61144 17.1947 2.72614 16.2945 2.05954C16.2156 2.0082 16.1269 1.97217 16.0334 1.95352C15.9399 1.93487 15.8435 1.93396 15.7496 1.95085C15.56 1.98496 15.3925 2.08947 15.2837 2.2414C15.2299 2.31663 15.1921 2.40124 15.1725 2.49039C15.153 2.57954 15.152 2.67149 15.1697 2.76099C15.1874 2.85049 15.2235 2.93579 15.2757 3.01202C15.328 3.08825 15.3955 3.15391 15.4744 3.20526C16.1583 3.73125 16.6836 4.42075 16.9969 5.20347C17.3102 5.98619 17.4001 6.83412 17.2577 7.66081C17.2443 7.74929 17.2495 7.83943 17.273 7.92596C17.2966 8.0125 17.338 8.09369 17.3948 8.1648C17.4516 8.23591 17.5227 8.29551 17.6039 8.34012C17.6852 8.38473 17.775 8.41346 17.868 8.42462Z" fill="#009EF7"/>
</svg>
