<svg width="12" height="14" viewBox="0 0 12 14" fill="none" xmlns="http://www.w3.org/2000/svg">
<path d="M9.75 4.9H3.75V3.5C3.75 2.94 3.975 2.45 4.425 2.03C5.325 1.19 6.75 1.19 7.575 2.03C7.875 2.31 8.025 2.66 8.175 3.01C8.25 3.36 8.7 3.57 9.075 3.5C9.45 3.43 9.75 3.01 9.6 2.66C9.45 2.03 9.075 1.47 8.625 1.05C7.95 0.35 6.975 0 6 0C3.9 0 2.25 1.54 2.25 3.5V4.9C0.975 4.9 0 5.81 0 7V11.9C0 13.09 0.975 14 2.25 14H9.75C11.025 14 12 13.09 12 11.9V7C12 5.81 11.025 4.9 9.75 4.9ZM6.825 9.45L6.75 9.52V10.5C6.75 10.92 6.45 11.2 6 11.2C5.55 11.2 5.25 10.92 5.25 10.5V9.52C4.8 9.1 4.725 8.47 5.175 8.05C5.625 7.63 6.3 7.56 6.75 7.98C7.2 8.33 7.275 9.03 6.825 9.45Z" fill="#34C759"/>
</svg>
