<svg width="18" height="19" viewBox="0 0 18 19" fill="none" xmlns="http://www.w3.org/2000/svg">
<path d="M12.15 10.175C12.15 10.175 12.075 10.175 12.15 10.175C12 10.1 11.925 10.025 11.775 10.025C13.725 8.52498 14.1 5.67498 12.525 3.72498C10.95 1.77498 8.175 1.39998 6.225 2.97498C4.275 4.54998 3.9 7.32498 5.475 9.27498C5.7 9.57498 5.925 9.79998 6.225 10.025C6.15 10.1 6 10.1 5.925 10.175C5.925 10.175 5.925 10.175 5.85 10.175C3.45 11.3 1.8 13.55 1.5 16.175C1.5 16.55 1.8 16.925 2.25 17H15.75C16.125 16.925 16.425 16.55 16.425 16.175C16.2 13.55 14.55 11.3 12.15 10.175ZM6 6.19998C6.15 4.54998 7.65 3.34998 9.225 3.49998C10.65 3.64998 11.775 4.77498 11.925 6.19998H6ZM9 12.65L7.575 11.225C8.55 11 9.525 11 10.5 11.225L9 12.65Z" fill="#50A5F1"/>
</svg>
