<svg width="20" height="20" viewBox="0 0 20 20" fill="none" xmlns="http://www.w3.org/2000/svg">
<circle cx="10" cy="10" r="10" fill="#50A5F1"/>
<path d="M12.4501 10.5251C12.4501 10.5251 12.3917 10.5251 12.4501 10.5251C12.3334 10.4668 12.2751 10.4084 12.1584 10.4084C13.6751 9.24176 13.9667 7.02509 12.7417 5.50842C11.5167 3.99176 9.35841 3.70009 7.84175 4.92509C6.32508 6.15009 6.03341 8.30842 7.25841 9.82509C7.43341 10.0584 7.60841 10.2334 7.84175 10.4084C7.78341 10.4668 7.66675 10.4668 7.60841 10.5251C7.60841 10.5251 7.60841 10.5251 7.55008 10.5251C5.68341 11.4001 4.40008 13.1501 4.16675 15.1918C4.16675 15.4834 4.40008 15.7751 4.75008 15.8334H15.2501C15.5417 15.7751 15.7751 15.4834 15.7751 15.1918C15.6001 13.1501 14.3167 11.4001 12.4501 10.5251ZM7.66675 7.43342C7.78341 6.15009 8.95008 5.21676 10.1751 5.33342C11.2834 5.45009 12.1584 6.32509 12.2751 7.43342H7.66675ZM10.0001 12.4501L8.89175 11.3418C9.65008 11.1668 10.4084 11.1668 11.1667 11.3418L10.0001 12.4501Z" fill="white"/>
</svg>
